<svg width="660" height="618" viewBox="0 0 660 618" xmlns="http://www.w3.org/2000/svg" font-family="Helvetica, Arial, sans-serif">
  <rect width="660" height="618" fill="white"/>
  <text x="330" y="15" font-size="14" fill="#111" text-anchor="middle">t = 2</text>
  <rect x="14" y="22" width="632" height="170" fill="white" stroke="#444" stroke-width="1.2"/>
  <polygon points="20.0,59.9 22.8,60.1 25.7,60.4 28.5,60.7 31.3,61.0 34.2,61.4 37.0,61.8 39.8,62.2 42.6,62.6 45.5,63.1 48.3,63.6 51.1,64.1 54.0,64.6 56.8,65.2 59.6,65.8 62.5,66.5 65.3,67.1 68.1,67.8 71.0,68.6 73.8,69.3 76.6,70.1 79.5,70.9 82.3,71.8 85.1,72.6 87.9,73.5 90.8,74.4 93.6,75.3 96.4,74.9 99.3,74.0 102.1,73.1 104.9,72.2 107.8,71.4 110.6,70.6 113.4,69.8 116.3,69.0 119.1,68.3 121.9,67.6 124.7,66.9 127.6,66.2 130.4,65.6 133.2,65.0 136.1,64.5 138.9,63.9 141.7,63.4 144.6,63.0 147.4,62.5 150.2,62.1 153.1,61.7 155.9,61.3 158.7,61.0 161.6,60.7 164.4,60.4 167.2,60.1 170.0,59.9 172.9,59.7 175.7,59.5 178.5,59.3 181.4,59.1 184.2,59.0 187.0,58.8 189.9,58.7 192.7,58.6 195.5,58.5 198.4,58.5 201.2,58.4 204.0,58.4 206.8,58.3 209.7,58.3 212.5,58.3 215.3,58.3 218.2,58.3 221.0,58.3 223.8,58.3 226.7,58.4 229.5,58.4 232.3,58.5 235.2,58.5 238.0,58.6 240.8,58.6 243.7,58.7 246.5,58.7 249.3,58.8 252.1,58.9 255.0,59.0 257.8,59.1 260.6,59.2 263.5,59.2 266.3,59.3 269.1,59.4 272.0,59.5 274.8,59.6 277.6,59.7 280.5,59.8 283.3,59.9 286.1,60.0 288.9,60.1 291.8,60.3 294.6,60.4 297.4,60.5 300.3,60.6 303.1,60.7 305.9,60.8 308.8,60.9 311.6,61.1 314.4,61.2 317.3,61.3 320.1,61.4 322.9,61.6 325.8,61.7 328.6,61.8 331.4,62.0 334.2,62.1 337.1,62.2 339.9,62.4 342.7,62.5 345.6,62.7 348.4,62.8 351.2,63.0 354.1,63.1 356.9,63.3 359.7,63.4 362.6,63.6 365.4,63.8 368.2,64.0 371.1,64.1 373.9,64.3 376.7,64.5 379.5,64.7 382.4,64.9 385.2,65.1 388.0,65.4 390.9,65.6 393.7,65.8 396.5,66.1 399.4,66.3 402.2,66.6 405.0,66.8 407.9,67.1 410.7,67.4 413.5,67.7 416.3,68.0 419.2,68.3 422.0,68.6 424.8,68.9 427.7,69.3 430.5,69.7 433.3,70.0 436.2,70.4 439.0,70.8 441.8,71.2 444.7,71.7 447.5,72.1 450.3,72.6 453.2,73.0 456.0,73.5 458.8,74.0 461.6,74.5 464.5,75.1 467.3,75.6 470.1,76.2 473.0,76.8 475.8,77.4 478.6,78.0 481.5,78.7 484.3,79.3 487.1,80.0 490.0,80.7 492.8,81.5 495.6,82.2 498.4,83.0 501.3,83.7 504.1,84.5 506.9,85.3 509.8,86.2 512.6,87.0 515.4,87.9 518.3,88.8 521.1,89.7 523.9,90.6 526.8,91.5 529.6,92.5 532.4,93.4 535.3,94.4 538.1,95.4 540.9,96.3 543.7,97.3 546.6,98.3 549.4,99.3 552.2,100.3 555.1,101.3 557.9,102.2 560.7,103.2 563.6,104.2 566.4,104.6 569.2,103.6 572.1,102.7 574.9,101.7 577.7,100.7 580.5,99.8 583.4,98.8 586.2,97.8 589.0,96.8 591.9,95.8 594.7,94.9 597.5,93.9 600.4,92.9 603.2,92.0 606.0,91.1 608.9,90.2 611.7,89.3 614.5,88.4 617.4,87.5 620.2,86.6 623.0,85.8 625.8,85.0 628.7,84.2 631.5,83.4 634.3,82.7 637.2,81.9 640.0,81.2 640.0,120.6 637.2,120.4 634.3,120.1 631.5,119.8 628.7,119.4 625.8,119.1 623.0,118.7 620.2,118.3 617.4,117.9 614.5,117.4 611.7,116.9 608.9,116.4 606.0,115.8 603.2,115.3 600.4,114.7 597.5,114.0 594.7,113.3 591.9,112.7 589.0,111.9 586.2,111.2 583.4,110.4 580.5,109.6 577.7,108.7 574.9,107.9 572.1,107.0 569.2,106.1 566.4,105.2 563.6,105.5 560.7,106.5 557.9,107.4 555.1,108.2 552.2,109.1 549.4,109.9 546.6,110.7 543.7,111.5 540.9,112.2 538.1,112.9 535.3,113.6 532.4,114.2 529.6,114.9 526.8,115.5 523.9,116.0 521.1,116.5 518.3,117.0 515.4,117.5 512.6,118.0 509.8,118.4 506.9,118.8 504.1,119.1 501.3,119.5 498.4,119.8 495.6,120.1 492.8,120.3 490.0,120.6 487.1,120.8 484.3,121.0 481.5,121.2 478.6,121.4 475.8,121.5 473.0,121.6 470.1,121.7 467.3,121.8 464.5,121.9 461.6,122.0 458.8,122.1 456.0,122.1 453.2,122.1 450.3,122.2 447.5,122.2 444.7,122.2 441.8,122.2 439.0,122.2 436.2,122.1 433.3,122.1 430.5,122.1 427.7,122.0 424.8,122.0 422.0,121.9 419.2,121.9 416.3,121.8 413.5,121.7 410.7,121.7 407.9,121.6 405.0,121.5 402.2,121.4 399.4,121.3 396.5,121.2 393.7,121.1 390.9,121.1 388.0,121.0 385.2,120.9 382.4,120.8 379.5,120.7 376.7,120.5 373.9,120.4 371.1,120.3 368.2,120.2 365.4,120.1 362.6,120.0 359.7,119.9 356.9,119.8 354.1,119.7 351.2,119.5 348.4,119.4 345.6,119.3 342.7,119.2 339.9,119.0 337.1,118.9 334.2,118.8 331.4,118.7 328.6,118.5 325.8,118.4 322.9,118.3 320.1,118.1 317.3,118.0 314.4,117.8 311.6,117.7 308.8,117.5 305.9,117.4 303.1,117.2 300.3,117.0 297.4,116.9 294.6,116.7 291.8,116.5 288.9,116.3 286.1,116.1 283.3,116.0 280.5,115.8 277.6,115.5 274.8,115.3 272.0,115.1 269.1,114.9 266.3,114.7 263.5,114.4 260.6,114.2 257.8,113.9 255.0,113.7 252.1,113.4 249.3,113.1 246.5,112.8 243.7,112.5 240.8,112.2 238.0,111.9 235.2,111.5 232.3,111.2 229.5,110.8 226.7,110.4 223.8,110.1 221.0,109.7 218.2,109.3 215.3,108.8 212.5,108.4 209.7,107.9 206.8,107.5 204.0,107.0 201.2,106.5 198.4,105.9 195.5,105.4 192.7,104.8 189.9,104.3 187.0,103.7 184.2,103.1 181.4,102.4 178.5,101.8 175.7,101.1 172.9,100.4 170.0,99.7 167.2,99.0 164.4,98.3 161.6,97.5 158.7,96.7 155.9,95.9 153.1,95.1 150.2,94.3 147.4,93.4 144.6,92.6 141.7,91.7 138.9,90.8 136.1,89.9 133.2,88.9 130.4,88.0 127.6,87.1 124.7,86.1 121.9,85.1 119.1,84.1 116.3,83.2 113.4,82.2 110.6,81.2 107.8,80.2 104.9,79.2 102.1,78.2 99.3,77.3 96.4,76.3 93.6,75.9 90.8,76.8 87.9,77.8 85.1,78.8 82.3,79.7 79.5,80.7 76.6,81.7 73.8,82.7 71.0,83.7 68.1,84.6 65.3,85.6 62.5,86.6 59.6,87.5 56.8,88.5 54.0,89.4 51.1,90.3 48.3,91.2 45.5,92.1 42.6,93.0 39.8,93.8 37.0,94.7 34.2,95.5 31.3,96.3 28.5,97.1 25.7,97.8 22.8,98.6 20.0,99.3" fill="#b9b9f2" fill-opacity="0.75"/>
  <polygon points="20.0,178.8 22.8,179.6 25.7,180.4 28.5,181.2 31.3,181.9 34.2,182.6 37.0,183.2 39.8,183.7 42.6,184.3 45.5,184.7 48.3,185.1 51.1,185.4 54.0,185.6 56.8,185.8 59.6,185.9 62.5,185.9 65.3,186.0 68.1,186.0 71.0,186.0 73.8,186.0 76.6,186.0 79.5,186.0 82.3,186.0 85.1,186.0 87.9,186.0 90.8,186.0 93.6,186.0 96.4,186.0 99.3,186.0 102.1,186.0 104.9,186.0 107.8,186.0 110.6,186.0 113.4,186.0 116.3,186.0 119.1,186.0 121.9,186.0 124.7,186.0 127.6,185.9 130.4,185.8 133.2,185.7 136.1,185.5 138.9,185.2 141.7,184.9 144.6,184.5 147.4,184.0 150.2,183.5 153.1,182.9 155.9,182.2 158.7,181.5 161.6,180.8 164.4,180.0 167.2,179.2 170.0,178.3 172.9,177.5 175.7,176.6 178.5,175.7 181.4,174.8 184.2,173.9 187.0,173.0 189.9,172.0 192.7,171.1 195.5,170.2 198.4,169.4 201.2,168.5 204.0,167.6 206.8,166.7 209.7,165.9 212.5,165.1 215.3,164.3 218.2,163.5 221.0,162.7 223.8,161.9 226.7,161.2 229.5,160.5 232.3,159.8 235.2,159.1 238.0,158.4 240.8,157.7 243.7,157.1 246.5,156.5 249.3,155.9 252.1,155.3 255.0,154.7 257.8,154.1 260.6,153.6 263.5,153.1 266.3,152.6 269.1,152.1 272.0,151.6 274.8,151.1 277.6,150.6 280.5,150.2 283.3,149.7 286.1,149.3 288.9,148.9 291.8,148.5 294.6,148.1 297.4,147.7 300.3,147.3 303.1,146.9 305.9,146.6 308.8,146.2 311.6,145.9 314.4,145.5 317.3,145.2 320.1,144.8 322.9,144.5 325.8,144.2 328.6,143.9 331.4,143.6 334.2,143.3 337.1,142.9 339.9,142.6 342.7,142.4 345.6,142.1 348.4,141.8 351.2,141.5 354.1,141.2 356.9,140.9 359.7,140.6 362.6,140.4 365.4,140.1 368.2,139.8 371.1,139.6 373.9,139.3 376.7,139.0 379.5,138.8 382.4,138.5 385.2,138.3 388.0,138.0 390.9,137.8 393.7,137.6 396.5,137.3 399.4,137.1 402.2,136.9 405.0,136.7 407.9,136.5 410.7,136.3 413.5,136.1 416.3,135.9 419.2,135.8 422.0,135.6 424.8,135.5 427.7,135.4 430.5,135.3 433.3,135.2 436.2,135.1 439.0,135.0 441.8,135.0 444.7,135.0 447.5,135.0 450.3,135.1 453.2,135.1 456.0,135.2 458.8,135.3 461.6,135.5 464.5,135.7 467.3,135.9 470.1,136.2 473.0,136.5 475.8,136.9 478.6,137.3 481.5,137.7 484.3,138.3 487.1,138.8 490.0,139.5 492.8,140.1 495.6,140.9 498.4,141.7 501.3,142.6 504.1,143.6 506.9,144.6 509.8,145.7 512.6,146.9 515.4,148.2 518.3,149.5 521.1,151.0 523.9,152.5 526.8,154.2 529.6,155.9 532.4,157.7 535.3,159.6 538.1,161.6 540.9,163.8 543.7,166.0 546.6,168.3 549.4,170.7 552.2,173.1 555.1,175.7 557.9,178.4 560.7,181.1 563.6,183.9 566.4,185.1 569.2,182.3 572.1,179.5 574.9,176.8 577.7,174.2 580.5,171.6 583.4,169.2 586.2,166.8 589.0,164.6 591.9,162.4 594.7,160.3 597.5,158.4 600.4,156.5 603.2,154.7 606.0,153.0 608.9,151.4 611.7,149.9 614.5,148.5 617.4,147.2 620.2,145.9 623.0,144.7 625.8,143.6 628.7,142.6 631.5,141.7 634.3,140.8 637.2,140.0 640.0,139.3 640.0,190.0 640.0,190.0" fill="none"/>
  <polygon points="20.0,190.0 20.0,178.8 22.8,179.6 25.7,180.4 28.5,181.2 31.3,181.9 34.2,182.6 37.0,183.2 39.8,183.7 42.6,184.3 45.5,184.7 48.3,185.1 51.1,185.4 54.0,185.6 56.8,185.8 59.6,185.9 62.5,185.9 65.3,186.0 68.1,186.0 71.0,186.0 73.8,186.0 76.6,186.0 79.5,186.0 82.3,186.0 85.1,186.0 87.9,186.0 90.8,186.0 93.6,186.0 96.4,186.0 99.3,186.0 102.1,186.0 104.9,186.0 107.8,186.0 110.6,186.0 113.4,186.0 116.3,186.0 119.1,186.0 121.9,186.0 124.7,186.0 127.6,185.9 130.4,185.8 133.2,185.7 136.1,185.5 138.9,185.2 141.7,184.9 144.6,184.5 147.4,184.0 150.2,183.5 153.1,182.9 155.9,182.2 158.7,181.5 161.6,180.8 164.4,180.0 167.2,179.2 170.0,178.3 172.9,177.5 175.7,176.6 178.5,175.7 181.4,174.8 184.2,173.9 187.0,173.0 189.9,172.0 192.7,171.1 195.5,170.2 198.4,169.4 201.2,168.5 204.0,167.6 206.8,166.7 209.7,165.9 212.5,165.1 215.3,164.3 218.2,163.5 221.0,162.7 223.8,161.9 226.7,161.2 229.5,160.5 232.3,159.8 235.2,159.1 238.0,158.4 240.8,157.7 243.7,157.1 246.5,156.5 249.3,155.9 252.1,155.3 255.0,154.7 257.8,154.1 260.6,153.6 263.5,153.1 266.3,152.6 269.1,152.1 272.0,151.6 274.8,151.1 277.6,150.6 280.5,150.2 283.3,149.7 286.1,149.3 288.9,148.9 291.8,148.5 294.6,148.1 297.4,147.7 300.3,147.3 303.1,146.9 305.9,146.6 308.8,146.2 311.6,145.9 314.4,145.5 317.3,145.2 320.1,144.8 322.9,144.5 325.8,144.2 328.6,143.9 331.4,143.6 334.2,143.3 337.1,142.9 339.9,142.6 342.7,142.4 345.6,142.1 348.4,141.8 351.2,141.5 354.1,141.2 356.9,140.9 359.7,140.6 362.6,140.4 365.4,140.1 368.2,139.8 371.1,139.6 373.9,139.3 376.7,139.0 379.5,138.8 382.4,138.5 385.2,138.3 388.0,138.0 390.9,137.8 393.7,137.6 396.5,137.3 399.4,137.1 402.2,136.9 405.0,136.7 407.9,136.5 410.7,136.3 413.5,136.1 416.3,135.9 419.2,135.8 422.0,135.6 424.8,135.5 427.7,135.4 430.5,135.3 433.3,135.2 436.2,135.1 439.0,135.0 441.8,135.0 444.7,135.0 447.5,135.0 450.3,135.1 453.2,135.1 456.0,135.2 458.8,135.3 461.6,135.5 464.5,135.7 467.3,135.9 470.1,136.2 473.0,136.5 475.8,136.9 478.6,137.3 481.5,137.7 484.3,138.3 487.1,138.8 490.0,139.5 492.8,140.1 495.6,140.9 498.4,141.7 501.3,142.6 504.1,143.6 506.9,144.6 509.8,145.7 512.6,146.9 515.4,148.2 518.3,149.5 521.1,151.0 523.9,152.5 526.8,154.2 529.6,155.9 532.4,157.7 535.3,159.6 538.1,161.6 540.9,163.8 543.7,166.0 546.6,168.3 549.4,170.7 552.2,173.1 555.1,175.7 557.9,178.4 560.7,181.1 563.6,183.9 566.4,185.1 569.2,182.3 572.1,179.5 574.9,176.8 577.7,174.2 580.5,171.6 583.4,169.2 586.2,166.8 589.0,164.6 591.9,162.4 594.7,160.3 597.5,158.4 600.4,156.5 603.2,154.7 606.0,153.0 608.9,151.4 611.7,149.9 614.5,148.5 617.4,147.2 620.2,145.9 623.0,144.7 625.8,143.6 628.7,142.6 631.5,141.7 634.3,140.8 637.2,140.0 640.0,139.3 640.0,190.0" fill="#e8f6ec"/>
  <polyline points="20.0,178.8 22.8,179.6 25.7,180.4 28.5,181.2 31.3,181.9 34.2,182.6 37.0,183.2 39.8,183.7 42.6,184.3 45.5,184.7 48.3,185.1 51.1,185.4 54.0,185.6 56.8,185.8 59.6,185.9 62.5,185.9 65.3,186.0 68.1,186.0 71.0,186.0 73.8,186.0 76.6,186.0 79.5,186.0 82.3,186.0 85.1,186.0 87.9,186.0 90.8,186.0 93.6,186.0 96.4,186.0 99.3,186.0 102.1,186.0 104.9,186.0 107.8,186.0 110.6,186.0 113.4,186.0 116.3,186.0 119.1,186.0 121.9,186.0 124.7,186.0 127.6,185.9 130.4,185.8 133.2,185.7 136.1,185.5 138.9,185.2 141.7,184.9 144.6,184.5 147.4,184.0 150.2,183.5 153.1,182.9 155.9,182.2 158.7,181.5 161.6,180.8 164.4,180.0 167.2,179.2 170.0,178.3 172.9,177.5 175.7,176.6 178.5,175.7 181.4,174.8 184.2,173.9 187.0,173.0 189.9,172.0 192.7,171.1 195.5,170.2 198.4,169.4 201.2,168.5 204.0,167.6 206.8,166.7 209.7,165.9 212.5,165.1 215.3,164.3 218.2,163.5 221.0,162.7 223.8,161.9 226.7,161.2 229.5,160.5 232.3,159.8 235.2,159.1 238.0,158.4 240.8,157.7 243.7,157.1 246.5,156.5 249.3,155.9 252.1,155.3 255.0,154.7 257.8,154.1 260.6,153.6 263.5,153.1 266.3,152.6 269.1,152.1 272.0,151.6 274.8,151.1 277.6,150.6 280.5,150.2 283.3,149.7 286.1,149.3 288.9,148.9 291.8,148.5 294.6,148.1 297.4,147.7 300.3,147.3 303.1,146.9 305.9,146.6 308.8,146.2 311.6,145.9 314.4,145.5 317.3,145.2 320.1,144.8 322.9,144.5 325.8,144.2 328.6,143.9 331.4,143.6 334.2,143.3 337.1,142.9 339.9,142.6 342.7,142.4 345.6,142.1 348.4,141.8 351.2,141.5 354.1,141.2 356.9,140.9 359.7,140.6 362.6,140.4 365.4,140.1 368.2,139.8 371.1,139.6 373.9,139.3 376.7,139.0 379.5,138.8 382.4,138.5 385.2,138.3 388.0,138.0 390.9,137.8 393.7,137.6 396.5,137.3 399.4,137.1 402.2,136.9 405.0,136.7 407.9,136.5 410.7,136.3 413.5,136.1 416.3,135.9 419.2,135.8 422.0,135.6 424.8,135.5 427.7,135.4 430.5,135.3 433.3,135.2 436.2,135.1 439.0,135.0 441.8,135.0 444.7,135.0 447.5,135.0 450.3,135.1 453.2,135.1 456.0,135.2 458.8,135.3 461.6,135.5 464.5,135.7 467.3,135.9 470.1,136.2 473.0,136.5 475.8,136.9 478.6,137.3 481.5,137.7 484.3,138.3 487.1,138.8 490.0,139.5 492.8,140.1 495.6,140.9 498.4,141.7 501.3,142.6 504.1,143.6 506.9,144.6 509.8,145.7 512.6,146.9 515.4,148.2 518.3,149.5 521.1,151.0 523.9,152.5 526.8,154.2 529.6,155.9 532.4,157.7 535.3,159.6 538.1,161.6 540.9,163.8 543.7,166.0 546.6,168.3 549.4,170.7 552.2,173.1 555.1,175.7 557.9,178.4 560.7,181.1 563.6,183.9 566.4,185.1 569.2,182.3 572.1,179.5 574.9,176.8 577.7,174.2 580.5,171.6 583.4,169.2 586.2,166.8 589.0,164.6 591.9,162.4 594.7,160.3 597.5,158.4 600.4,156.5 603.2,154.7 606.0,153.0 608.9,151.4 611.7,149.9 614.5,148.5 617.4,147.2 620.2,145.9 623.0,144.7 625.8,143.6 628.7,142.6 631.5,141.7 634.3,140.8 637.2,140.0 640.0,139.3" fill="none" stroke="#2e7d4f" stroke-width="1.8"/>
  <polyline points="20.0,33.9 22.8,35.1 25.7,36.4 28.5,37.7 31.3,39.0 34.2,40.4 37.0,41.8 39.8,43.3 42.6,44.7 45.5,46.2 48.3,47.8 51.1,49.3 54.0,50.9 56.8,52.5 59.6,54.2 62.5,55.8 65.3,57.5 68.1,59.2 71.0,60.9 73.8,62.7 76.6,64.4 79.5,66.2 82.3,67.9 85.1,69.7 87.9,71.5 90.8,73.3 93.6,75.1 96.4,76.9 99.3,78.7 102.1,80.5 104.9,82.3 107.8,84.1 110.6,85.8 113.4,87.6 116.3,89.3 119.1,91.1 121.9,92.8 124.7,94.5 127.6,96.1 130.4,97.8 133.2,99.4 136.1,101.0 138.9,102.5 141.7,104.0 144.6,105.5 147.4,107.0 150.2,108.4 153.1,109.7 155.9,111.0 158.7,112.3 161.6,113.5 164.4,114.7 167.2,115.9 170.0,117.0 172.9,118.0 175.7,119.0 178.5,119.9 181.4,120.8 184.2,121.6 187.0,122.4 189.9,123.1 192.7,123.8 195.5,124.4 198.4,125.0 201.2,125.5 204.0,125.9 206.8,126.3 209.7,126.6 212.5,126.9 215.3,127.1 218.2,127.3 221.0,127.4 223.8,127.5 226.7,127.5 229.5,127.5 232.3,127.4 235.2,127.3 238.0,127.1 240.8,126.9 243.7,126.7 246.5,126.4 249.3,126.0 252.1,125.7 255.0,125.3 257.8,124.8 260.6,124.4 263.5,123.8 266.3,123.3 269.1,122.8 272.0,122.2 274.8,121.6 277.6,121.0 280.5,120.3 283.3,119.7 286.1,119.0 288.9,118.3 291.8,117.6 294.6,117.0 297.4,116.3 300.3,115.6 303.1,114.9 305.9,114.2 308.8,113.5 311.6,112.8 314.4,112.2 317.3,111.5 320.1,110.8 322.9,110.2 325.8,109.6 328.6,109.0 331.4,108.4 334.2,107.9 337.1,107.3 339.9,106.8 342.7,106.4 345.6,105.9 348.4,105.5 351.2,105.1 354.1,104.7 356.9,104.4 359.7,104.1 362.6,103.8 365.4,103.5 368.2,103.3 371.1,103.2 373.9,103.0 376.7,102.9 379.5,102.8 382.4,102.8 385.2,102.8 388.0,102.8 390.9,102.9 393.7,103.0 396.5,103.1 399.4,103.2 402.2,103.4 405.0,103.6 407.9,103.9 410.7,104.1 413.5,104.4 416.3,104.7 419.2,105.1 422.0,105.4 424.8,105.8 427.7,106.2 430.5,106.6 433.3,107.0 436.2,107.4 439.0,107.8 441.8,108.3 444.7,108.7 447.5,109.2 450.3,109.6 453.2,110.1 456.0,110.5 458.8,111.0 461.6,111.4 464.5,111.8 467.3,112.3 470.1,112.7 473.0,113.0 475.8,113.4 478.6,113.7 481.5,114.1 484.3,114.4 487.1,114.6 490.0,114.9 492.8,115.1 495.6,115.2 498.4,115.4 501.3,115.5 504.1,115.5 506.9,115.6 509.8,115.5 512.6,115.5 515.4,115.4 518.3,115.2 521.1,115.0 523.9,114.7 526.8,114.4 529.6,114.1 532.4,113.7 535.3,113.2 538.1,112.7 540.9,112.1 543.7,111.5 546.6,110.8 549.4,110.1 552.2,109.3 555.1,108.5 557.9,107.6 560.7,106.6 563.6,105.6 566.4,104.6 569.2,103.4 572.1,102.3 574.9,101.1 577.7,99.8 580.5,98.5 583.4,97.1 586.2,95.7 589.0,94.2 591.9,92.7 594.7,91.2 597.5,89.6 600.4,87.9 603.2,86.2 606.0,84.5 608.9,82.8 611.7,81.0 614.5,79.2 617.4,77.3 620.2,75.5 623.0,73.6 625.8,71.6 628.7,69.7 631.5,67.7 634.3,65.7 637.2,63.7 640.0,61.7" fill="none" stroke="#111" stroke-width="1.8" stroke-dasharray="7 5"/>
  <polyline points="20.0,79.6 22.8,79.3 25.7,79.1 28.5,78.9 31.3,78.7 34.2,78.4 37.0,78.2 39.8,78.0 42.6,77.8 45.5,77.6 48.3,77.4 51.1,77.2 54.0,77.0 56.8,76.8 59.6,76.7 62.5,76.5 65.3,76.4 68.1,76.2 71.0,76.1 73.8,76.0 76.6,75.9 79.5,75.8 82.3,75.7 85.1,75.7 87.9,75.6 90.8,75.6 93.6,75.6 96.4,75.6 99.3,75.6 102.1,75.7 104.9,75.7 107.8,75.8 110.6,75.9 113.4,76.0 116.3,76.1 119.1,76.2 121.9,76.3 124.7,76.5 127.6,76.6 130.4,76.8 133.2,77.0 136.1,77.2 138.9,77.4 141.7,77.6 144.6,77.8 147.4,78.0 150.2,78.2 153.1,78.4 155.9,78.6 158.7,78.9 161.6,79.1 164.4,79.3 167.2,79.6 170.0,79.8 172.9,80.1 175.7,80.3 178.5,80.5 181.4,80.8 184.2,81.0 187.0,81.3 189.9,81.5 192.7,81.7 195.5,82.0 198.4,82.2 201.2,82.4 204.0,82.7 206.8,82.9 209.7,83.1 212.5,83.3 215.3,83.6 218.2,83.8 221.0,84.0 223.8,84.2 226.7,84.4 229.5,84.6 232.3,84.8 235.2,85.0 238.0,85.2 240.8,85.4 243.7,85.6 246.5,85.8 249.3,86.0 252.1,86.1 255.0,86.3 257.8,86.5 260.6,86.7 263.5,86.8 266.3,87.0 269.1,87.2 272.0,87.3 274.8,87.5 277.6,87.6 280.5,87.8 283.3,87.9 286.1,88.1 288.9,88.2 291.8,88.4 294.6,88.5 297.4,88.7 300.3,88.8 303.1,89.0 305.9,89.1 308.8,89.2 311.6,89.4 314.4,89.5 317.3,89.6 320.1,89.8 322.9,89.9 325.8,90.0 328.6,90.2 331.4,90.3 334.2,90.4 337.1,90.6 339.9,90.7 342.7,90.8 345.6,91.0 348.4,91.1 351.2,91.2 354.1,91.4 356.9,91.5 359.7,91.7 362.6,91.8 365.4,91.9 368.2,92.1 371.1,92.2 373.9,92.4 376.7,92.5 379.5,92.7 382.4,92.8 385.2,93.0 388.0,93.2 390.9,93.3 393.7,93.5 396.5,93.6 399.4,93.8 402.2,94.0 405.0,94.2 407.9,94.3 410.7,94.5 413.5,94.7 416.3,94.9 419.2,95.1 422.0,95.3 424.8,95.5 427.7,95.7 430.5,95.9 433.3,96.1 436.2,96.3 439.0,96.5 441.8,96.7 444.7,96.9 447.5,97.1 450.3,97.4 453.2,97.6 456.0,97.8 458.8,98.0 461.6,98.3 464.5,98.5 467.3,98.7 470.1,99.0 473.0,99.2 475.8,99.5 478.6,99.7 481.5,99.9 484.3,100.2 487.1,100.4 490.0,100.7 492.8,100.9 495.6,101.1 498.4,101.4 501.3,101.6 504.1,101.8 506.9,102.1 509.8,102.3 512.6,102.5 515.4,102.7 518.3,102.9 521.1,103.1 523.9,103.3 526.8,103.5 529.6,103.7 532.4,103.8 535.3,104.0 538.1,104.1 540.9,104.3 543.7,104.4 546.6,104.5 549.4,104.6 552.2,104.7 555.1,104.7 557.9,104.8 560.7,104.8 563.6,104.9 566.4,104.9 569.2,104.9 572.1,104.8 574.9,104.8 577.7,104.7 580.5,104.7 583.4,104.6 586.2,104.5 589.0,104.4 591.9,104.2 594.7,104.1 597.5,104.0 600.4,103.8 603.2,103.6 606.0,103.5 608.9,103.3 611.7,103.1 614.5,102.9 617.4,102.7 620.2,102.5 623.0,102.3 625.8,102.0 628.7,101.8 631.5,101.6 634.3,101.4 637.2,101.1 640.0,100.9" fill="none" stroke="#111" stroke-width="2"/>
  <circle cx="94.4" cy="75.6" r="5" fill="#111" stroke="#111" stroke-width="1.2"/>
  <circle cx="565.6" cy="104.9" r="5" fill="#111" stroke="#111" stroke-width="1.2"/>
  <polygon points="438.7,121.0 450.7,121.0 444.7,131.0" fill="#e01b1b" stroke="#111" stroke-width="0.8"/>
  <text x="330" y="221" font-size="14" fill="#111" text-anchor="middle">t = 3</text>
  <rect x="14" y="228" width="632" height="170" fill="white" stroke="#444" stroke-width="1.2"/>
  <polygon points="20.0,267.4 22.8,267.6 25.7,267.8 28.5,268.0 31.3,268.2 34.2,268.5 37.0,268.8 39.8,269.1 42.6,269.5 45.5,269.8 48.3,270.3 51.1,270.7 54.0,271.2 56.8,271.7 59.6,272.2 62.5,272.8 65.3,273.4 68.1,274.0 71.0,274.7 73.8,275.4 76.6,276.2 79.5,277.0 82.3,277.8 85.1,278.6 87.9,279.5 90.8,280.4 93.6,281.3 96.4,280.9 99.3,280.0 102.1,279.2 104.9,278.3 107.8,277.5 110.6,276.7 113.4,276.0 116.3,275.3 119.1,274.6 121.9,274.0 124.7,273.4 127.6,272.8 130.4,272.3 133.2,271.8 136.1,271.3 138.9,270.9 141.7,270.5 144.6,270.1 147.4,269.8 150.2,269.5 153.1,269.2 155.9,269.0 158.7,268.8 161.6,268.6 164.4,268.4 167.2,268.3 170.0,268.2 172.9,268.1 175.7,268.0 178.5,268.0 181.4,267.9 184.2,267.9 187.0,267.9 189.9,268.0 192.7,268.0 195.5,268.1 198.4,268.1 201.2,268.2 204.0,268.3 206.8,268.4 209.7,268.6 212.5,268.7 215.3,268.9 218.2,269.0 221.0,269.2 223.8,269.4 226.7,269.6 229.5,269.8 232.3,270.0 235.2,270.2 238.0,270.4 240.8,270.6 243.7,270.9 246.5,271.1 249.3,271.3 252.1,271.6 255.0,271.9 257.8,272.1 260.6,272.4 263.5,272.7 266.3,273.0 269.1,273.3 272.0,273.6 274.8,273.9 277.6,274.2 280.5,274.6 283.3,274.9 286.1,275.2 288.9,275.6 291.8,275.9 294.6,276.3 297.4,276.7 300.3,277.1 303.1,277.5 305.9,277.9 308.8,278.3 311.6,278.7 314.4,279.2 317.3,279.6 320.1,280.1 322.9,280.6 325.8,281.1 328.6,281.6 331.4,282.1 334.2,282.6 337.1,283.2 339.9,283.7 342.7,284.3 345.6,284.9 348.4,285.5 351.2,286.1 354.1,286.8 356.9,287.4 359.7,288.1 362.6,288.8 365.4,289.5 368.2,290.2 371.1,291.0 373.9,291.8 376.7,292.5 379.5,293.4 382.4,294.2 385.2,295.0 388.0,295.9 390.9,296.7 393.7,297.6 396.5,298.5 399.4,299.4 402.2,300.4 405.0,301.3 407.9,302.3 410.7,303.2 413.5,304.2 416.3,305.2 419.2,306.1 422.0,307.1 424.8,308.1 427.7,309.1 430.5,310.1 433.3,311.0 436.2,312.0 439.0,312.9 441.8,313.8 444.7,314.6 447.5,314.0 450.3,313.2 453.2,312.5 456.0,311.7 458.8,311.0 461.6,310.3 464.5,309.7 467.3,309.0 470.1,308.4 473.0,307.8 475.8,307.2 478.6,306.7 481.5,306.2 484.3,305.7 487.1,305.3 490.0,305.0 492.8,304.6 495.6,304.3 498.4,304.1 501.3,303.9 504.1,303.7 506.9,303.6 509.8,303.6 512.6,303.6 515.4,303.6 518.3,303.7 521.1,303.8 523.9,304.0 526.8,304.2 529.6,304.4 532.4,304.7 535.3,305.1 538.1,305.4 540.9,305.9 543.7,306.3 546.6,306.8 549.4,307.3 552.2,307.9 555.1,308.5 557.9,309.1 560.7,309.7 563.6,310.4 566.4,310.6 569.2,309.6 572.1,308.6 574.9,307.6 577.7,306.6 580.5,305.6 583.4,304.6 586.2,303.6 589.0,302.6 591.9,301.6 594.7,300.7 597.5,299.7 600.4,298.8 603.2,297.9 606.0,297.0 608.9,296.1 611.7,295.2 614.5,294.4 617.4,293.6 620.2,292.8 623.0,292.0 625.8,291.2 628.7,290.5 631.5,289.8 634.3,289.1 637.2,288.5 640.0,287.8 640.0,326.1 637.2,325.7 634.3,325.3 631.5,324.9 628.7,324.4 625.8,324.0 623.0,323.5 620.2,323.0 617.4,322.5 614.5,322.0 611.7,321.5 608.9,320.9 606.0,320.3 603.2,319.7 600.4,319.1 597.5,318.5 594.7,317.9 591.9,317.2 589.0,316.5 586.2,315.9 583.4,315.2 580.5,314.5 577.7,313.8 574.9,313.1 572.1,312.4 569.2,311.7 566.4,311.1 563.6,311.6 560.7,312.5 557.9,313.5 555.1,314.4 552.2,315.3 549.4,316.1 546.6,316.9 543.7,317.7 540.9,318.5 538.1,319.2 535.3,319.8 532.4,320.5 529.6,321.0 526.8,321.6 523.9,322.1 521.1,322.5 518.3,322.9 515.4,323.2 512.6,323.5 509.8,323.7 506.9,323.9 504.1,324.0 501.3,324.1 498.4,324.1 495.6,324.1 492.8,324.0 490.0,323.8 487.1,323.6 484.3,323.4 481.5,323.0 478.6,322.7 475.8,322.3 473.0,321.8 470.1,321.3 467.3,320.7 464.5,320.1 461.6,319.5 458.8,318.8 456.0,318.0 453.2,317.3 450.3,316.5 447.5,315.6 444.7,314.9 441.8,315.5 439.0,316.3 436.2,317.0 433.3,317.8 430.5,318.5 427.7,319.2 424.8,319.9 422.0,320.6 419.2,321.2 416.3,321.9 413.5,322.5 410.7,323.1 407.9,323.7 405.0,324.2 402.2,324.7 399.4,325.2 396.5,325.7 393.7,326.2 390.9,326.6 388.0,327.0 385.2,327.4 382.4,327.7 379.5,328.0 376.7,328.3 373.9,328.6 371.1,328.9 368.2,329.1 365.4,329.3 362.6,329.5 359.7,329.7 356.9,329.8 354.1,329.9 351.2,330.0 348.4,330.1 345.6,330.2 342.7,330.2 339.9,330.3 337.1,330.3 334.2,330.3 331.4,330.3 328.6,330.3 325.8,330.2 322.9,330.2 320.1,330.1 317.3,330.0 314.4,329.9 311.6,329.8 308.8,329.7 305.9,329.5 303.1,329.4 300.3,329.2 297.4,329.1 294.6,328.9 291.8,328.7 288.9,328.5 286.1,328.3 283.3,328.0 280.5,327.8 277.6,327.5 274.8,327.3 272.0,327.0 269.1,326.7 266.3,326.4 263.5,326.1 260.6,325.8 257.8,325.5 255.0,325.1 252.1,324.8 249.3,324.4 246.5,324.0 243.7,323.6 240.8,323.2 238.0,322.8 235.2,322.3 232.3,321.9 229.5,321.4 226.7,321.0 223.8,320.5 221.0,320.0 218.2,319.4 215.3,318.9 212.5,318.3 209.7,317.8 206.8,317.2 204.0,316.6 201.2,315.9 198.4,315.3 195.5,314.6 192.7,314.0 189.9,313.3 187.0,312.6 184.2,311.8 181.4,311.1 178.5,310.3 175.7,309.5 172.9,308.7 170.0,307.9 167.2,307.1 164.4,306.2 161.6,305.3 158.7,304.4 155.9,303.5 153.1,302.6 150.2,301.6 147.4,300.7 144.6,299.7 141.7,298.7 138.9,297.7 136.1,296.7 133.2,295.7 130.4,294.6 127.6,293.6 124.7,292.6 121.9,291.5 119.1,290.5 116.3,289.4 113.4,288.4 110.6,287.3 107.8,286.3 104.9,285.3 102.1,284.3 99.3,283.3 96.4,282.3 93.6,281.9 90.8,282.8 87.9,283.8 85.1,284.8 82.3,285.8 79.5,286.8 76.6,287.8 73.8,288.8 71.0,289.8 68.1,290.9 65.3,291.9 62.5,292.9 59.6,293.9 56.8,294.9 54.0,295.9 51.1,296.9 48.3,297.9 45.5,298.9 42.6,299.8 39.8,300.8 37.0,301.7 34.2,302.6 31.3,303.5 28.5,304.4 25.7,305.2 22.8,306.1 20.0,306.9" fill="#b9b9f2" fill-opacity="0.75"/>
  <polygon points="20.0,385.8 22.8,386.6 25.7,387.4 28.5,388.1 31.3,388.8 34.2,389.4 37.0,390.0 39.8,390.4 42.6,390.8 45.5,391.2 48.3,391.4 51.1,391.7 54.0,391.8 56.8,391.9 59.6,392.0 62.5,392.0 65.3,392.0 68.1,392.0 71.0,392.0 73.8,392.0 76.6,392.0 79.5,392.0 82.3,392.0 85.1,392.0 87.9,392.0 90.8,392.0 93.6,392.0 96.4,392.0 99.3,392.0 102.1,392.0 104.9,392.0 107.8,392.0 110.6,392.0 113.4,392.0 116.3,392.0 119.1,392.0 121.9,392.0 124.7,392.0 127.6,392.0 130.4,391.9 133.2,391.8 136.1,391.7 138.9,391.5 141.7,391.3 144.6,391.0 147.4,390.6 150.2,390.1 153.1,389.6 155.9,388.9 158.7,388.3 161.6,387.5 164.4,386.7 167.2,385.8 170.0,384.9 172.9,384.0 175.7,383.0 178.5,382.0 181.4,380.9 184.2,379.9 187.0,378.8 189.9,377.7 192.7,376.6 195.5,375.5 198.4,374.3 201.2,373.2 204.0,372.1 206.8,371.0 209.7,369.9 212.5,368.8 215.3,367.7 218.2,366.6 221.0,365.5 223.8,364.5 226.7,363.5 229.5,362.4 232.3,361.4 235.2,360.4 238.0,359.5 240.8,358.5 243.7,357.6 246.5,356.7 249.3,355.8 252.1,354.9 255.0,354.1 257.8,353.3 260.6,352.5 263.5,351.7 266.3,350.9 269.1,350.2 272.0,349.5 274.8,348.8 277.6,348.1 280.5,347.5 283.3,346.9 286.1,346.3 288.9,345.7 291.8,345.2 294.6,344.7 297.4,344.2 300.3,343.7 303.1,343.3 305.9,342.9 308.8,342.6 311.6,342.2 314.4,342.0 317.3,341.7 320.1,341.5 322.9,341.3 325.8,341.2 328.6,341.1 331.4,341.0 334.2,341.0 337.1,341.0 339.9,341.1 342.7,341.2 345.6,341.4 348.4,341.7 351.2,342.0 354.1,342.3 356.9,342.7 359.7,343.2 362.6,343.7 365.4,344.3 368.2,345.0 371.1,345.7 373.9,346.5 376.7,347.4 379.5,348.4 382.4,349.4 385.2,350.5 388.0,351.7 390.9,353.0 393.7,354.4 396.5,355.8 399.4,357.3 402.2,359.0 405.0,360.7 407.9,362.4 410.7,364.3 413.5,366.3 416.3,368.3 419.2,370.4 422.0,372.6 424.8,374.8 427.7,377.1 430.5,379.5 433.3,381.9 436.2,384.4 439.0,386.9 441.8,389.4 444.7,391.6 447.5,388.9 450.3,386.0 453.2,383.2 456.0,380.5 458.8,378.0 461.6,375.6 464.5,373.4 467.3,371.3 470.1,369.4 473.0,367.7 475.8,366.2 478.6,364.8 481.5,363.6 484.3,362.6 487.1,361.8 490.0,361.2 492.8,360.8 495.6,360.5 498.4,360.4 501.3,360.6 504.1,360.9 506.9,361.3 509.8,362.0 512.6,362.8 515.4,363.9 518.3,365.0 521.1,366.4 523.9,367.9 526.8,369.5 529.6,371.3 532.4,373.3 535.3,375.3 538.1,377.5 540.9,379.7 543.7,382.0 546.6,384.3 549.4,386.5 552.2,388.6 555.1,390.3 557.9,391.5 560.7,392.0 563.6,392.0 566.4,392.0 569.2,392.0 572.1,391.9 574.9,391.4 577.7,390.5 580.5,389.1 583.4,387.6 586.2,385.8 589.0,384.0 591.9,382.2 594.7,380.3 597.5,378.4 600.4,376.5 603.2,374.7 606.0,372.8 608.9,371.1 611.7,369.3 614.5,367.6 617.4,365.9 620.2,364.3 623.0,362.8 625.8,361.3 628.7,359.8 631.5,358.5 634.3,357.1 637.2,355.9 640.0,354.6 640.0,396.0 640.0,396.0" fill="none"/>
  <polygon points="20.0,396.0 20.0,385.8 22.8,386.6 25.7,387.4 28.5,388.1 31.3,388.8 34.2,389.4 37.0,390.0 39.8,390.4 42.6,390.8 45.5,391.2 48.3,391.4 51.1,391.7 54.0,391.8 56.8,391.9 59.6,392.0 62.5,392.0 65.3,392.0 68.1,392.0 71.0,392.0 73.8,392.0 76.6,392.0 79.5,392.0 82.3,392.0 85.1,392.0 87.9,392.0 90.8,392.0 93.6,392.0 96.4,392.0 99.3,392.0 102.1,392.0 104.9,392.0 107.8,392.0 110.6,392.0 113.4,392.0 116.3,392.0 119.1,392.0 121.9,392.0 124.7,392.0 127.6,392.0 130.4,391.9 133.2,391.8 136.1,391.7 138.9,391.5 141.7,391.3 144.6,391.0 147.4,390.6 150.2,390.1 153.1,389.6 155.9,388.9 158.7,388.3 161.6,387.5 164.4,386.7 167.2,385.8 170.0,384.9 172.9,384.0 175.7,383.0 178.5,382.0 181.4,380.9 184.2,379.9 187.0,378.8 189.9,377.7 192.7,376.6 195.5,375.5 198.4,374.3 201.2,373.2 204.0,372.1 206.8,371.0 209.7,369.9 212.5,368.8 215.3,367.7 218.2,366.6 221.0,365.5 223.8,364.5 226.7,363.5 229.5,362.4 232.3,361.4 235.2,360.4 238.0,359.5 240.8,358.5 243.7,357.6 246.5,356.7 249.3,355.8 252.1,354.9 255.0,354.1 257.8,353.3 260.6,352.5 263.5,351.7 266.3,350.9 269.1,350.2 272.0,349.5 274.8,348.8 277.6,348.1 280.5,347.5 283.3,346.9 286.1,346.3 288.9,345.7 291.8,345.2 294.6,344.7 297.4,344.2 300.3,343.7 303.1,343.3 305.9,342.9 308.8,342.6 311.6,342.2 314.4,342.0 317.3,341.7 320.1,341.5 322.9,341.3 325.8,341.2 328.6,341.1 331.4,341.0 334.2,341.0 337.1,341.0 339.9,341.1 342.7,341.2 345.6,341.4 348.4,341.7 351.2,342.0 354.1,342.3 356.9,342.7 359.7,343.2 362.6,343.7 365.4,344.3 368.2,345.0 371.1,345.7 373.9,346.5 376.7,347.4 379.5,348.4 382.4,349.4 385.2,350.5 388.0,351.7 390.9,353.0 393.7,354.4 396.5,355.8 399.4,357.3 402.2,359.0 405.0,360.7 407.9,362.4 410.7,364.3 413.5,366.3 416.3,368.3 419.2,370.4 422.0,372.6 424.8,374.8 427.7,377.1 430.5,379.5 433.3,381.9 436.2,384.4 439.0,386.9 441.8,389.4 444.7,391.6 447.5,388.9 450.3,386.0 453.2,383.2 456.0,380.5 458.8,378.0 461.6,375.6 464.5,373.4 467.3,371.3 470.1,369.4 473.0,367.7 475.8,366.2 478.6,364.8 481.5,363.6 484.3,362.6 487.1,361.8 490.0,361.2 492.8,360.8 495.6,360.5 498.4,360.4 501.3,360.6 504.1,360.9 506.9,361.3 509.8,362.0 512.6,362.8 515.4,363.9 518.3,365.0 521.1,366.4 523.9,367.9 526.8,369.5 529.6,371.3 532.4,373.3 535.3,375.3 538.1,377.5 540.9,379.7 543.7,382.0 546.6,384.3 549.4,386.5 552.2,388.6 555.1,390.3 557.9,391.5 560.7,392.0 563.6,392.0 566.4,392.0 569.2,392.0 572.1,391.9 574.9,391.4 577.7,390.5 580.5,389.1 583.4,387.6 586.2,385.8 589.0,384.0 591.9,382.2 594.7,380.3 597.5,378.4 600.4,376.5 603.2,374.7 606.0,372.8 608.9,371.1 611.7,369.3 614.5,367.6 617.4,365.9 620.2,364.3 623.0,362.8 625.8,361.3 628.7,359.8 631.5,358.5 634.3,357.1 637.2,355.9 640.0,354.6 640.0,396.0" fill="#e8f6ec"/>
  <polyline points="20.0,385.8 22.8,386.6 25.7,387.4 28.5,388.1 31.3,388.8 34.2,389.4 37.0,390.0 39.8,390.4 42.6,390.8 45.5,391.2 48.3,391.4 51.1,391.7 54.0,391.8 56.8,391.9 59.6,392.0 62.5,392.0 65.3,392.0 68.1,392.0 71.0,392.0 73.8,392.0 76.6,392.0 79.5,392.0 82.3,392.0 85.1,392.0 87.9,392.0 90.8,392.0 93.6,392.0 96.4,392.0 99.3,392.0 102.1,392.0 104.9,392.0 107.8,392.0 110.6,392.0 113.4,392.0 116.3,392.0 119.1,392.0 121.9,392.0 124.7,392.0 127.6,392.0 130.4,391.9 133.2,391.8 136.1,391.7 138.9,391.5 141.7,391.3 144.6,391.0 147.4,390.6 150.2,390.1 153.1,389.6 155.9,388.9 158.7,388.3 161.6,387.5 164.4,386.7 167.2,385.8 170.0,384.9 172.9,384.0 175.7,383.0 178.5,382.0 181.4,380.9 184.2,379.9 187.0,378.8 189.9,377.7 192.7,376.6 195.5,375.5 198.4,374.3 201.2,373.2 204.0,372.1 206.8,371.0 209.7,369.9 212.5,368.8 215.3,367.7 218.2,366.6 221.0,365.5 223.8,364.5 226.7,363.5 229.5,362.4 232.3,361.4 235.2,360.4 238.0,359.5 240.8,358.5 243.7,357.6 246.5,356.7 249.3,355.8 252.1,354.9 255.0,354.1 257.8,353.3 260.6,352.5 263.5,351.7 266.3,350.9 269.1,350.2 272.0,349.5 274.8,348.8 277.6,348.1 280.5,347.5 283.3,346.9 286.1,346.3 288.9,345.7 291.8,345.2 294.6,344.7 297.4,344.2 300.3,343.7 303.1,343.3 305.9,342.9 308.8,342.6 311.6,342.2 314.4,342.0 317.3,341.7 320.1,341.5 322.9,341.3 325.8,341.2 328.6,341.1 331.4,341.0 334.2,341.0 337.1,341.0 339.9,341.1 342.7,341.2 345.6,341.4 348.4,341.7 351.2,342.0 354.1,342.3 356.9,342.7 359.7,343.2 362.6,343.7 365.4,344.3 368.2,345.0 371.1,345.7 373.9,346.5 376.7,347.4 379.5,348.4 382.4,349.4 385.2,350.5 388.0,351.7 390.9,353.0 393.7,354.4 396.5,355.8 399.4,357.3 402.2,359.0 405.0,360.7 407.9,362.4 410.7,364.3 413.5,366.3 416.3,368.3 419.2,370.4 422.0,372.6 424.8,374.8 427.7,377.1 430.5,379.5 433.3,381.9 436.2,384.4 439.0,386.9 441.8,389.4 444.7,391.6 447.5,388.9 450.3,386.0 453.2,383.2 456.0,380.5 458.8,378.0 461.6,375.6 464.5,373.4 467.3,371.3 470.1,369.4 473.0,367.7 475.8,366.2 478.6,364.8 481.5,363.6 484.3,362.6 487.1,361.8 490.0,361.2 492.8,360.8 495.6,360.5 498.4,360.4 501.3,360.6 504.1,360.9 506.9,361.3 509.8,362.0 512.6,362.8 515.4,363.9 518.3,365.0 521.1,366.4 523.9,367.9 526.8,369.5 529.6,371.3 532.4,373.3 535.3,375.3 538.1,377.5 540.9,379.7 543.7,382.0 546.6,384.3 549.4,386.5 552.2,388.6 555.1,390.3 557.9,391.5 560.7,392.0 563.6,392.0 566.4,392.0 569.2,392.0 572.1,391.9 574.9,391.4 577.7,390.5 580.5,389.1 583.4,387.6 586.2,385.8 589.0,384.0 591.9,382.2 594.7,380.3 597.5,378.4 600.4,376.5 603.2,374.7 606.0,372.8 608.9,371.1 611.7,369.3 614.5,367.6 617.4,365.9 620.2,364.3 623.0,362.8 625.8,361.3 628.7,359.8 631.5,358.5 634.3,357.1 637.2,355.9 640.0,354.6" fill="none" stroke="#2e7d4f" stroke-width="1.8"/>
  <polyline points="20.0,239.9 22.8,241.1 25.7,242.4 28.5,243.7 31.3,245.0 34.2,246.4 37.0,247.8 39.8,249.3 42.6,250.7 45.5,252.2 48.3,253.8 51.1,255.3 54.0,256.9 56.8,258.5 59.6,260.2 62.5,261.8 65.3,263.5 68.1,265.2 71.0,266.9 73.8,268.7 76.6,270.4 79.5,272.2 82.3,273.9 85.1,275.7 87.9,277.5 90.8,279.3 93.6,281.1 96.4,282.9 99.3,284.7 102.1,286.5 104.9,288.3 107.8,290.1 110.6,291.8 113.4,293.6 116.3,295.3 119.1,297.1 121.9,298.8 124.7,300.5 127.6,302.1 130.4,303.8 133.2,305.4 136.1,307.0 138.9,308.5 141.7,310.0 144.6,311.5 147.4,313.0 150.2,314.4 153.1,315.7 155.9,317.0 158.7,318.3 161.6,319.5 164.4,320.7 167.2,321.9 170.0,323.0 172.9,324.0 175.7,325.0 178.5,325.9 181.4,326.8 184.2,327.6 187.0,328.4 189.9,329.1 192.7,329.8 195.5,330.4 198.4,331.0 201.2,331.5 204.0,331.9 206.8,332.3 209.7,332.6 212.5,332.9 215.3,333.1 218.2,333.3 221.0,333.4 223.8,333.5 226.7,333.5 229.5,333.5 232.3,333.4 235.2,333.3 238.0,333.1 240.8,332.9 243.7,332.7 246.5,332.4 249.3,332.0 252.1,331.7 255.0,331.3 257.8,330.8 260.6,330.4 263.5,329.8 266.3,329.3 269.1,328.8 272.0,328.2 274.8,327.6 277.6,327.0 280.5,326.3 283.3,325.7 286.1,325.0 288.9,324.3 291.8,323.6 294.6,323.0 297.4,322.3 300.3,321.6 303.1,320.9 305.9,320.2 308.8,319.5 311.6,318.8 314.4,318.2 317.3,317.5 320.1,316.8 322.9,316.2 325.8,315.6 328.6,315.0 331.4,314.4 334.2,313.9 337.1,313.3 339.9,312.8 342.7,312.4 345.6,311.9 348.4,311.5 351.2,311.1 354.1,310.7 356.9,310.4 359.7,310.1 362.6,309.8 365.4,309.5 368.2,309.3 371.1,309.2 373.9,309.0 376.7,308.9 379.5,308.8 382.4,308.8 385.2,308.8 388.0,308.8 390.9,308.9 393.7,309.0 396.5,309.1 399.4,309.2 402.2,309.4 405.0,309.6 407.9,309.9 410.7,310.1 413.5,310.4 416.3,310.7 419.2,311.1 422.0,311.4 424.8,311.8 427.7,312.2 430.5,312.6 433.3,313.0 436.2,313.4 439.0,313.8 441.8,314.3 444.7,314.7 447.5,315.2 450.3,315.6 453.2,316.1 456.0,316.5 458.8,317.0 461.6,317.4 464.5,317.8 467.3,318.3 470.1,318.7 473.0,319.0 475.8,319.4 478.6,319.7 481.5,320.1 484.3,320.4 487.1,320.6 490.0,320.9 492.8,321.1 495.6,321.2 498.4,321.4 501.3,321.5 504.1,321.5 506.9,321.6 509.8,321.5 512.6,321.5 515.4,321.4 518.3,321.2 521.1,321.0 523.9,320.7 526.8,320.4 529.6,320.1 532.4,319.7 535.3,319.2 538.1,318.7 540.9,318.1 543.7,317.5 546.6,316.8 549.4,316.1 552.2,315.3 555.1,314.5 557.9,313.6 560.7,312.6 563.6,311.6 566.4,310.6 569.2,309.4 572.1,308.3 574.9,307.1 577.7,305.8 580.5,304.5 583.4,303.1 586.2,301.7 589.0,300.2 591.9,298.7 594.7,297.2 597.5,295.6 600.4,293.9 603.2,292.2 606.0,290.5 608.9,288.8 611.7,287.0 614.5,285.2 617.4,283.3 620.2,281.5 623.0,279.6 625.8,277.6 628.7,275.7 631.5,273.7 634.3,271.7 637.2,269.7 640.0,267.7" fill="none" stroke="#111" stroke-width="1.8" stroke-dasharray="7 5"/>
  <polyline points="20.0,287.2 22.8,286.8 25.7,286.5 28.5,286.2 31.3,285.9 34.2,285.6 37.0,285.2 39.8,284.9 42.6,284.6 45.5,284.4 48.3,284.1 51.1,283.8 54.0,283.5 56.8,283.3 59.6,283.1 62.5,282.8 65.3,282.6 68.1,282.4 71.0,282.3 73.8,282.1 76.6,282.0 79.5,281.9 82.3,281.8 85.1,281.7 87.9,281.6 90.8,281.6 93.6,281.6 96.4,281.6 99.3,281.7 102.1,281.7 104.9,281.8 107.8,281.9 110.6,282.0 113.4,282.2 116.3,282.4 119.1,282.5 121.9,282.8 124.7,283.0 127.6,283.2 130.4,283.5 133.2,283.7 136.1,284.0 138.9,284.3 141.7,284.6 144.6,284.9 147.4,285.2 150.2,285.6 153.1,285.9 155.9,286.2 158.7,286.6 161.6,286.9 164.4,287.3 167.2,287.7 170.0,288.0 172.9,288.4 175.7,288.8 178.5,289.1 181.4,289.5 184.2,289.9 187.0,290.2 189.9,290.6 192.7,291.0 195.5,291.4 198.4,291.7 201.2,292.1 204.0,292.5 206.8,292.8 209.7,293.2 212.5,293.5 215.3,293.9 218.2,294.2 221.0,294.6 223.8,294.9 226.7,295.3 229.5,295.6 232.3,295.9 235.2,296.3 238.0,296.6 240.8,296.9 243.7,297.2 246.5,297.6 249.3,297.9 252.1,298.2 255.0,298.5 257.8,298.8 260.6,299.1 263.5,299.4 266.3,299.7 269.1,300.0 272.0,300.3 274.8,300.6 277.6,300.9 280.5,301.2 283.3,301.5 286.1,301.7 288.9,302.0 291.8,302.3 294.6,302.6 297.4,302.9 300.3,303.2 303.1,303.4 305.9,303.7 308.8,304.0 311.6,304.3 314.4,304.5 317.3,304.8 320.1,305.1 322.9,305.4 325.8,305.6 328.6,305.9 331.4,306.2 334.2,306.5 337.1,306.7 339.9,307.0 342.7,307.3 345.6,307.5 348.4,307.8 351.2,308.1 354.1,308.3 356.9,308.6 359.7,308.9 362.6,309.1 365.4,309.4 368.2,309.7 371.1,309.9 373.9,310.2 376.7,310.4 379.5,310.7 382.4,310.9 385.2,311.2 388.0,311.4 390.9,311.7 393.7,311.9 396.5,312.1 399.4,312.3 402.2,312.6 405.0,312.8 407.9,313.0 410.7,313.2 413.5,313.3 416.3,313.5 419.2,313.7 422.0,313.9 424.8,314.0 427.7,314.1 430.5,314.3 433.3,314.4 436.2,314.5 439.0,314.6 441.8,314.7 444.7,314.7 447.5,314.8 450.3,314.8 453.2,314.9 456.0,314.9 458.8,314.9 461.6,314.9 464.5,314.9 467.3,314.9 470.1,314.8 473.0,314.8 475.8,314.7 478.6,314.7 481.5,314.6 484.3,314.6 487.1,314.5 490.0,314.4 492.8,314.3 495.6,314.2 498.4,314.1 501.3,314.0 504.1,313.9 506.9,313.8 509.8,313.6 512.6,313.5 515.4,313.4 518.3,313.3 521.1,313.1 523.9,313.0 526.8,312.9 529.6,312.7 532.4,312.6 535.3,312.5 538.1,312.3 540.9,312.2 543.7,312.0 546.6,311.9 549.4,311.7 552.2,311.6 555.1,311.4 557.9,311.3 560.7,311.1 563.6,311.0 566.4,310.8 569.2,310.7 572.1,310.5 574.9,310.4 577.7,310.2 580.5,310.0 583.4,309.9 586.2,309.7 589.0,309.6 591.9,309.4 594.7,309.3 597.5,309.1 600.4,308.9 603.2,308.8 606.0,308.6 608.9,308.5 611.7,308.3 614.5,308.2 617.4,308.0 620.2,307.9 623.0,307.8 625.8,307.6 628.7,307.5 631.5,307.3 634.3,307.2 637.2,307.1 640.0,306.9" fill="none" stroke="#111" stroke-width="2"/>
  <circle cx="94.4" cy="281.6" r="5" fill="#111" stroke="#111" stroke-width="1.2"/>
  <circle cx="565.6" cy="310.9" r="5" fill="#111" stroke="#111" stroke-width="1.2"/>
  <circle cx="444.7" cy="314.7" r="6" fill="#e01b1b" stroke="#111" stroke-width="1.2"/>
  <polygon points="328.2,327.0 340.2,327.0 334.2,337.0" fill="#e01b1b" stroke="#111" stroke-width="0.8"/>
  <text x="330" y="427" font-size="14" fill="#111" text-anchor="middle">t = 4</text>
  <rect x="14" y="434" width="632" height="170" fill="white" stroke="#444" stroke-width="1.2"/>
  <polygon points="20.0,474.0 22.8,474.1 25.7,474.2 28.5,474.4 31.3,474.6 34.2,474.8 37.0,475.1 39.8,475.3 42.6,475.6 45.5,476.0 48.3,476.4 51.1,476.8 54.0,477.2 56.8,477.7 59.6,478.2 62.5,478.8 65.3,479.4 68.1,480.0 71.0,480.7 73.8,481.4 76.6,482.1 79.5,482.9 82.3,483.7 85.1,484.6 87.9,485.5 90.8,486.4 93.6,487.3 96.4,487.0 99.3,486.1 102.1,485.3 104.9,484.5 107.8,483.8 110.6,483.1 113.4,482.4 116.3,481.8 119.1,481.2 121.9,480.7 124.7,480.2 127.6,479.7 130.4,479.3 133.2,478.9 136.1,478.6 138.9,478.3 141.7,478.1 144.6,477.8 147.4,477.7 150.2,477.5 153.1,477.4 155.9,477.4 158.7,477.3 161.6,477.3 164.4,477.4 167.2,477.4 170.0,477.5 172.9,477.7 175.7,477.8 178.5,478.0 181.4,478.2 184.2,478.5 187.0,478.8 189.9,479.1 192.7,479.4 195.5,479.7 198.4,480.1 201.2,480.5 204.0,480.9 206.8,481.4 209.7,481.8 212.5,482.3 215.3,482.8 218.2,483.3 221.0,483.9 223.8,484.5 226.7,485.1 229.5,485.7 232.3,486.3 235.2,487.0 238.0,487.7 240.8,488.4 243.7,489.1 246.5,489.8 249.3,490.6 252.1,491.4 255.0,492.2 257.8,493.0 260.6,493.8 263.5,494.7 266.3,495.5 269.1,496.4 272.0,497.4 274.8,498.3 277.6,499.2 280.5,500.2 283.3,501.2 286.1,502.2 288.9,503.2 291.8,504.2 294.6,505.2 297.4,506.3 300.3,507.3 303.1,508.4 305.9,509.5 308.8,510.5 311.6,511.6 314.4,512.7 317.3,513.7 320.1,514.8 322.9,515.8 325.8,516.9 328.6,517.9 331.4,518.9 334.2,519.8 337.1,519.3 339.9,518.7 342.7,518.1 345.6,517.5 348.4,517.0 351.2,516.5 354.1,516.0 356.9,515.5 359.7,515.1 362.6,514.7 365.4,514.3 368.2,514.0 371.1,513.7 373.9,513.4 376.7,513.2 379.5,513.1 382.4,513.0 385.2,512.9 388.0,512.9 390.9,512.9 393.7,513.0 396.5,513.1 399.4,513.2 402.2,513.5 405.0,513.7 407.9,514.0 410.7,514.3 413.5,514.7 416.3,515.1 419.2,515.6 422.0,516.0 424.8,516.6 427.7,517.1 430.5,517.7 433.3,518.2 436.2,518.9 439.0,519.5 441.8,520.1 444.7,520.6 447.5,520.0 450.3,519.2 453.2,518.4 456.0,517.6 458.8,516.9 461.6,516.2 464.5,515.4 467.3,514.8 470.1,514.1 473.0,513.5 475.8,512.9 478.6,512.3 481.5,511.8 484.3,511.3 487.1,510.9 490.0,510.5 492.8,510.1 495.6,509.8 498.4,509.6 501.3,509.3 504.1,509.2 506.9,509.1 509.8,509.0 512.6,509.0 515.4,509.0 518.3,509.1 521.1,509.3 523.9,509.4 526.8,509.7 529.6,509.9 532.4,510.3 535.3,510.6 538.1,511.0 540.9,511.5 543.7,512.0 546.6,512.5 549.4,513.1 552.2,513.7 555.1,514.3 557.9,515.0 560.7,515.6 563.6,516.3 566.4,516.6 569.2,515.7 572.1,514.8 574.9,513.8 577.7,512.9 580.5,511.9 583.4,511.0 586.2,510.1 589.0,509.1 591.9,508.2 594.7,507.3 597.5,506.4 600.4,505.6 603.2,504.7 606.0,503.9 608.9,503.0 611.7,502.2 614.5,501.4 617.4,500.7 620.2,499.9 623.0,499.2 625.8,498.5 628.7,497.8 631.5,497.2 634.3,496.5 637.2,495.9 640.0,495.3 640.0,533.4 637.2,533.0 634.3,532.6 631.5,532.1 628.7,531.6 625.8,531.1 623.0,530.6 620.2,530.1 617.4,529.5 614.5,528.9 611.7,528.3 608.9,527.7 606.0,527.1 603.2,526.4 600.4,525.8 597.5,525.1 594.7,524.4 591.9,523.7 589.0,523.0 586.2,522.2 583.4,521.5 580.5,520.8 577.7,520.0 574.9,519.3 572.1,518.5 569.2,517.8 566.4,517.1 563.6,517.5 560.7,518.4 557.9,519.3 555.1,520.1 552.2,520.9 549.4,521.7 546.6,522.5 543.7,523.2 540.9,523.9 538.1,524.5 535.3,525.1 532.4,525.6 529.6,526.1 526.8,526.6 523.9,527.0 521.1,527.4 518.3,527.7 515.4,528.0 512.6,528.2 509.8,528.4 506.9,528.5 504.1,528.6 501.3,528.6 498.4,528.6 495.6,528.5 492.8,528.4 490.0,528.2 487.1,528.0 484.3,527.8 481.5,527.5 478.6,527.2 475.8,526.8 473.0,526.4 470.1,525.9 467.3,525.4 464.5,524.9 461.6,524.4 458.8,523.8 456.0,523.2 453.2,522.6 450.3,522.0 447.5,521.4 444.7,520.9 441.8,521.5 439.0,522.3 436.2,523.0 433.3,523.7 430.5,524.4 427.7,525.1 424.8,525.7 422.0,526.4 419.2,526.9 416.3,527.4 413.5,527.9 410.7,528.4 407.9,528.7 405.0,529.1 402.2,529.4 399.4,529.6 396.5,529.8 393.7,529.9 390.9,530.0 388.0,530.0 385.2,529.9 382.4,529.8 379.5,529.7 376.7,529.5 373.9,529.2 371.1,528.9 368.2,528.5 365.4,528.0 362.6,527.5 359.7,527.0 356.9,526.4 354.1,525.7 351.2,525.0 348.4,524.3 345.6,523.5 342.7,522.6 339.9,521.7 337.1,520.8 334.2,520.0 331.4,520.5 328.6,521.1 325.8,521.7 322.9,522.3 320.1,522.9 317.3,523.4 314.4,524.0 311.6,524.5 308.8,525.0 305.9,525.5 303.1,526.0 300.3,526.4 297.4,526.9 294.6,527.3 291.8,527.6 288.9,527.9 286.1,528.3 283.3,528.5 280.5,528.8 277.6,529.0 274.8,529.2 272.0,529.3 269.1,529.4 266.3,529.5 263.5,529.6 260.6,529.6 257.8,529.6 255.0,529.6 252.1,529.5 249.3,529.4 246.5,529.3 243.7,529.1 240.8,528.9 238.0,528.7 235.2,528.5 232.3,528.2 229.5,527.9 226.7,527.5 223.8,527.2 221.0,526.8 218.2,526.4 215.3,525.9 212.5,525.4 209.7,524.9 206.8,524.4 204.0,523.9 201.2,523.3 198.4,522.7 195.5,522.0 192.7,521.4 189.9,520.7 187.0,520.0 184.2,519.2 181.4,518.5 178.5,517.7 175.7,516.9 172.9,516.0 170.0,515.2 167.2,514.3 164.4,513.4 161.6,512.5 158.7,511.5 155.9,510.5 153.1,509.6 150.2,508.6 147.4,507.6 144.6,506.5 141.7,505.5 138.9,504.4 136.1,503.4 133.2,502.3 130.4,501.2 127.6,500.1 124.7,499.0 121.9,497.9 119.1,496.8 116.3,495.7 113.4,494.6 110.6,493.5 107.8,492.5 104.9,491.4 102.1,490.4 99.3,489.3 96.4,488.3 93.6,487.9 90.8,488.8 87.9,489.7 85.1,490.7 82.3,491.6 79.5,492.6 76.6,493.6 73.8,494.7 71.0,495.7 68.1,496.7 65.3,497.8 62.5,498.8 59.6,499.8 56.8,500.9 54.0,501.9 51.1,502.9 48.3,503.9 45.5,504.9 42.6,505.9 39.8,506.9 37.0,507.8 34.2,508.8 31.3,509.7 28.5,510.7 25.7,511.6 22.8,512.4 20.0,513.3" fill="#b9b9f2" fill-opacity="0.75"/>
  <polygon points="20.0,590.0 22.8,591.1 25.7,592.1 28.5,593.1 31.3,594.0 34.2,594.7 37.0,595.4 39.8,596.1 42.6,596.6 45.5,597.0 48.3,597.3 51.1,597.6 54.0,597.8 56.8,597.9 59.6,597.9 62.5,598.0 65.3,598.0 68.1,598.0 71.0,598.0 73.8,598.0 76.6,598.0 79.5,598.0 82.3,598.0 85.1,598.0 87.9,598.0 90.8,598.0 93.6,598.0 96.4,598.0 99.3,598.0 102.1,598.0 104.9,598.0 107.8,598.0 110.6,598.0 113.4,598.0 116.3,598.0 119.1,598.0 121.9,598.0 124.7,598.0 127.6,598.0 130.4,597.9 133.2,597.8 136.1,597.7 138.9,597.4 141.7,597.1 144.6,596.7 147.4,596.2 150.2,595.6 153.1,594.9 155.9,594.1 158.7,593.2 161.6,592.2 164.4,591.2 167.2,590.1 170.0,588.9 172.9,587.7 175.7,586.4 178.5,585.2 181.4,583.9 184.2,582.5 187.0,581.2 189.9,579.8 192.7,578.5 195.5,577.2 198.4,575.9 201.2,574.6 204.0,573.3 206.8,572.1 209.7,570.9 212.5,569.8 215.3,568.7 218.2,567.7 221.0,566.7 223.8,565.8 226.7,564.9 229.5,564.1 232.3,563.4 235.2,562.8 238.0,562.2 240.8,561.7 243.7,561.4 246.5,561.1 249.3,560.8 252.1,560.7 255.0,560.7 257.8,560.8 260.6,561.0 263.5,561.3 266.3,561.6 269.1,562.1 272.0,562.7 274.8,563.5 277.6,564.3 280.5,565.2 283.3,566.3 286.1,567.4 288.9,568.7 291.8,570.1 294.6,571.6 297.4,573.2 300.3,574.9 303.1,576.7 305.9,578.6 308.8,580.6 311.6,582.6 314.4,584.8 317.3,587.0 320.1,589.2 322.9,591.5 325.8,593.8 328.6,595.9 331.4,597.6 334.2,598.0 337.1,597.1 339.9,594.0 342.7,590.4 345.6,586.8 348.4,583.3 351.2,580.0 354.1,577.0 356.9,574.1 359.7,571.4 362.6,569.0 365.4,566.8 368.2,564.9 371.1,563.2 373.9,561.7 376.7,560.5 379.5,559.6 382.4,558.9 385.2,558.4 388.0,558.2 390.9,558.3 393.7,558.6 396.5,559.1 399.4,559.9 402.2,560.9 405.0,562.1 407.9,563.6 410.7,565.2 413.5,567.1 416.3,569.1 419.2,571.4 422.0,573.8 424.8,576.4 427.7,579.2 430.5,582.1 433.3,585.1 436.2,588.2 439.0,591.4 441.8,594.6 444.7,597.5 447.5,595.4 450.3,592.8 453.2,590.3 456.0,587.8 458.8,585.4 461.6,583.1 464.5,580.9 467.3,578.8 470.1,576.8 473.0,575.0 475.8,573.3 478.6,571.8 481.5,570.5 484.3,569.3 487.1,568.3 490.0,567.5 492.8,566.8 495.6,566.4 498.4,566.2 501.3,566.1 504.1,566.3 506.9,566.6 509.8,567.2 512.6,567.9 515.4,568.8 518.3,570.0 521.1,571.3 523.9,572.8 526.8,574.4 529.6,576.3 532.4,578.3 535.3,580.4 538.1,582.7 540.9,585.0 543.7,587.5 546.6,589.9 549.4,592.3 552.2,594.5 555.1,596.3 557.9,597.6 560.7,598.0 563.6,598.0 566.4,598.0 569.2,598.0 572.1,597.9 574.9,597.2 577.7,595.9 580.5,594.1 583.4,591.9 586.2,589.6 589.0,587.2 591.9,584.7 594.7,582.1 597.5,579.5 600.4,577.0 603.2,574.5 606.0,572.0 608.9,569.5 611.7,567.2 614.5,564.8 617.4,562.6 620.2,560.4 623.0,558.3 625.8,556.2 628.7,554.2 631.5,552.3 634.3,550.5 637.2,548.7 640.0,547.0 640.0,602.0 640.0,602.0" fill="none"/>
  <polygon points="20.0,602.0 20.0,590.0 22.8,591.1 25.7,592.1 28.5,593.1 31.3,594.0 34.2,594.7 37.0,595.4 39.8,596.1 42.6,596.6 45.5,597.0 48.3,597.3 51.1,597.6 54.0,597.8 56.8,597.9 59.6,597.9 62.5,598.0 65.3,598.0 68.1,598.0 71.0,598.0 73.8,598.0 76.6,598.0 79.5,598.0 82.3,598.0 85.1,598.0 87.9,598.0 90.8,598.0 93.6,598.0 96.4,598.0 99.3,598.0 102.1,598.0 104.9,598.0 107.8,598.0 110.6,598.0 113.4,598.0 116.3,598.0 119.1,598.0 121.9,598.0 124.7,598.0 127.6,598.0 130.4,597.9 133.2,597.8 136.1,597.7 138.9,597.4 141.7,597.1 144.6,596.7 147.4,596.2 150.2,595.6 153.1,594.9 155.9,594.1 158.7,593.2 161.6,592.2 164.4,591.2 167.2,590.1 170.0,588.9 172.9,587.7 175.7,586.4 178.5,585.2 181.4,583.9 184.2,582.5 187.0,581.2 189.9,579.8 192.7,578.5 195.5,577.2 198.4,575.9 201.2,574.6 204.0,573.3 206.8,572.1 209.7,570.9 212.5,569.8 215.3,568.7 218.2,567.7 221.0,566.7 223.8,565.8 226.7,564.9 229.5,564.1 232.3,563.4 235.2,562.8 238.0,562.2 240.8,561.7 243.7,561.4 246.5,561.1 249.3,560.8 252.1,560.7 255.0,560.7 257.8,560.8 260.6,561.0 263.5,561.3 266.3,561.6 269.1,562.1 272.0,562.7 274.8,563.5 277.6,564.3 280.5,565.2 283.3,566.3 286.1,567.4 288.9,568.7 291.8,570.1 294.6,571.6 297.4,573.2 300.3,574.9 303.1,576.7 305.9,578.6 308.8,580.6 311.6,582.6 314.4,584.8 317.3,587.0 320.1,589.2 322.9,591.5 325.8,593.8 328.6,595.9 331.4,597.6 334.2,598.0 337.1,597.1 339.9,594.0 342.7,590.4 345.6,586.8 348.4,583.3 351.2,580.0 354.1,577.0 356.9,574.1 359.7,571.4 362.6,569.0 365.4,566.8 368.2,564.9 371.1,563.2 373.9,561.7 376.7,560.5 379.5,559.6 382.4,558.9 385.2,558.4 388.0,558.2 390.9,558.3 393.7,558.6 396.5,559.1 399.4,559.9 402.2,560.9 405.0,562.1 407.9,563.6 410.7,565.2 413.5,567.1 416.3,569.1 419.2,571.4 422.0,573.8 424.8,576.4 427.7,579.2 430.5,582.1 433.3,585.1 436.2,588.2 439.0,591.4 441.8,594.6 444.7,597.5 447.5,595.4 450.3,592.8 453.2,590.3 456.0,587.8 458.8,585.4 461.6,583.1 464.5,580.9 467.3,578.8 470.1,576.8 473.0,575.0 475.8,573.3 478.6,571.8 481.5,570.5 484.3,569.3 487.1,568.3 490.0,567.5 492.8,566.8 495.6,566.4 498.4,566.2 501.3,566.1 504.1,566.3 506.9,566.6 509.8,567.2 512.6,567.9 515.4,568.8 518.3,570.0 521.1,571.3 523.9,572.8 526.8,574.4 529.6,576.3 532.4,578.3 535.3,580.4 538.1,582.7 540.9,585.0 543.7,587.5 546.6,589.9 549.4,592.3 552.2,594.5 555.1,596.3 557.9,597.6 560.7,598.0 563.6,598.0 566.4,598.0 569.2,598.0 572.1,597.9 574.9,597.2 577.7,595.9 580.5,594.1 583.4,591.9 586.2,589.6 589.0,587.2 591.9,584.7 594.7,582.1 597.5,579.5 600.4,577.0 603.2,574.5 606.0,572.0 608.9,569.5 611.7,567.2 614.5,564.8 617.4,562.6 620.2,560.4 623.0,558.3 625.8,556.2 628.7,554.2 631.5,552.3 634.3,550.5 637.2,548.7 640.0,547.0 640.0,602.0" fill="#e8f6ec"/>
  <polyline points="20.0,590.0 22.8,591.1 25.7,592.1 28.5,593.1 31.3,594.0 34.2,594.7 37.0,595.4 39.8,596.1 42.6,596.6 45.5,597.0 48.3,597.3 51.1,597.6 54.0,597.8 56.8,597.9 59.6,597.9 62.5,598.0 65.3,598.0 68.1,598.0 71.0,598.0 73.8,598.0 76.6,598.0 79.5,598.0 82.3,598.0 85.1,598.0 87.9,598.0 90.8,598.0 93.6,598.0 96.4,598.0 99.3,598.0 102.1,598.0 104.9,598.0 107.8,598.0 110.6,598.0 113.4,598.0 116.3,598.0 119.1,598.0 121.9,598.0 124.7,598.0 127.6,598.0 130.4,597.9 133.2,597.8 136.1,597.7 138.9,597.4 141.7,597.1 144.6,596.7 147.4,596.2 150.2,595.6 153.1,594.9 155.9,594.1 158.7,593.2 161.6,592.2 164.4,591.2 167.2,590.1 170.0,588.9 172.9,587.7 175.7,586.4 178.5,585.2 181.4,583.9 184.2,582.5 187.0,581.2 189.9,579.8 192.7,578.5 195.5,577.2 198.4,575.9 201.2,574.6 204.0,573.3 206.8,572.1 209.7,570.9 212.5,569.8 215.3,568.7 218.2,567.7 221.0,566.7 223.8,565.8 226.7,564.9 229.5,564.1 232.3,563.4 235.2,562.8 238.0,562.2 240.8,561.7 243.7,561.4 246.5,561.1 249.3,560.8 252.1,560.7 255.0,560.7 257.8,560.8 260.6,561.0 263.5,561.3 266.3,561.6 269.1,562.1 272.0,562.7 274.8,563.5 277.6,564.3 280.5,565.2 283.3,566.3 286.1,567.4 288.9,568.7 291.8,570.1 294.6,571.6 297.4,573.2 300.3,574.9 303.1,576.7 305.9,578.6 308.8,580.6 311.6,582.6 314.4,584.8 317.3,587.0 320.1,589.2 322.9,591.5 325.8,593.8 328.6,595.9 331.4,597.6 334.2,598.0 337.1,597.1 339.9,594.0 342.7,590.4 345.6,586.8 348.4,583.3 351.2,580.0 354.1,577.0 356.9,574.1 359.7,571.4 362.6,569.0 365.4,566.8 368.2,564.9 371.1,563.2 373.9,561.7 376.7,560.5 379.5,559.6 382.4,558.9 385.2,558.4 388.0,558.2 390.9,558.3 393.7,558.6 396.5,559.1 399.4,559.9 402.2,560.9 405.0,562.1 407.9,563.6 410.7,565.2 413.5,567.1 416.3,569.1 419.2,571.4 422.0,573.8 424.8,576.4 427.7,579.2 430.5,582.1 433.3,585.1 436.2,588.2 439.0,591.4 441.8,594.6 444.7,597.5 447.5,595.4 450.3,592.8 453.2,590.3 456.0,587.8 458.8,585.4 461.6,583.1 464.5,580.9 467.3,578.8 470.1,576.8 473.0,575.0 475.8,573.3 478.6,571.8 481.5,570.5 484.3,569.3 487.1,568.3 490.0,567.5 492.8,566.8 495.6,566.4 498.4,566.2 501.3,566.1 504.1,566.3 506.9,566.6 509.8,567.2 512.6,567.9 515.4,568.8 518.3,570.0 521.1,571.3 523.9,572.8 526.8,574.4 529.6,576.3 532.4,578.3 535.3,580.4 538.1,582.7 540.9,585.0 543.7,587.5 546.6,589.9 549.4,592.3 552.2,594.5 555.1,596.3 557.9,597.6 560.7,598.0 563.6,598.0 566.4,598.0 569.2,598.0 572.1,597.9 574.9,597.2 577.7,595.9 580.5,594.1 583.4,591.9 586.2,589.6 589.0,587.2 591.9,584.7 594.7,582.1 597.5,579.5 600.4,577.0 603.2,574.5 606.0,572.0 608.9,569.5 611.7,567.2 614.5,564.8 617.4,562.6 620.2,560.4 623.0,558.3 625.8,556.2 628.7,554.2 631.5,552.3 634.3,550.5 637.2,548.7 640.0,547.0" fill="none" stroke="#2e7d4f" stroke-width="1.8"/>
  <polyline points="20.0,445.9 22.8,447.1 25.7,448.4 28.5,449.7 31.3,451.0 34.2,452.4 37.0,453.8 39.8,455.3 42.6,456.7 45.5,458.2 48.3,459.8 51.1,461.3 54.0,462.9 56.8,464.5 59.6,466.2 62.5,467.8 65.3,469.5 68.1,471.2 71.0,472.9 73.8,474.7 76.6,476.4 79.5,478.2 82.3,479.9 85.1,481.7 87.9,483.5 90.8,485.3 93.6,487.1 96.4,488.9 99.3,490.7 102.1,492.5 104.9,494.3 107.8,496.1 110.6,497.8 113.4,499.6 116.3,501.3 119.1,503.1 121.9,504.8 124.7,506.5 127.6,508.1 130.4,509.8 133.2,511.4 136.1,513.0 138.9,514.5 141.7,516.0 144.6,517.5 147.4,519.0 150.2,520.4 153.1,521.7 155.9,523.0 158.7,524.3 161.6,525.5 164.4,526.7 167.2,527.9 170.0,529.0 172.9,530.0 175.7,531.0 178.5,531.9 181.4,532.8 184.2,533.6 187.0,534.4 189.9,535.1 192.7,535.8 195.5,536.4 198.4,537.0 201.2,537.5 204.0,537.9 206.8,538.3 209.7,538.6 212.5,538.9 215.3,539.1 218.2,539.3 221.0,539.4 223.8,539.5 226.7,539.5 229.5,539.5 232.3,539.4 235.2,539.3 238.0,539.1 240.8,538.9 243.7,538.7 246.5,538.4 249.3,538.0 252.1,537.7 255.0,537.3 257.8,536.8 260.6,536.4 263.5,535.8 266.3,535.3 269.1,534.8 272.0,534.2 274.8,533.6 277.6,533.0 280.5,532.3 283.3,531.7 286.1,531.0 288.9,530.3 291.8,529.6 294.6,529.0 297.4,528.3 300.3,527.6 303.1,526.9 305.9,526.2 308.8,525.5 311.6,524.8 314.4,524.2 317.3,523.5 320.1,522.8 322.9,522.2 325.8,521.6 328.6,521.0 331.4,520.4 334.2,519.9 337.1,519.3 339.9,518.8 342.7,518.4 345.6,517.9 348.4,517.5 351.2,517.1 354.1,516.7 356.9,516.4 359.7,516.1 362.6,515.8 365.4,515.5 368.2,515.3 371.1,515.2 373.9,515.0 376.7,514.9 379.5,514.8 382.4,514.8 385.2,514.8 388.0,514.8 390.9,514.9 393.7,515.0 396.5,515.1 399.4,515.2 402.2,515.4 405.0,515.6 407.9,515.9 410.7,516.1 413.5,516.4 416.3,516.7 419.2,517.1 422.0,517.4 424.8,517.8 427.7,518.2 430.5,518.6 433.3,519.0 436.2,519.4 439.0,519.8 441.8,520.3 444.7,520.7 447.5,521.2 450.3,521.6 453.2,522.1 456.0,522.5 458.8,523.0 461.6,523.4 464.5,523.8 467.3,524.3 470.1,524.7 473.0,525.0 475.8,525.4 478.6,525.7 481.5,526.1 484.3,526.4 487.1,526.6 490.0,526.9 492.8,527.1 495.6,527.2 498.4,527.4 501.3,527.5 504.1,527.5 506.9,527.6 509.8,527.5 512.6,527.5 515.4,527.4 518.3,527.2 521.1,527.0 523.9,526.7 526.8,526.4 529.6,526.1 532.4,525.7 535.3,525.2 538.1,524.7 540.9,524.1 543.7,523.5 546.6,522.8 549.4,522.1 552.2,521.3 555.1,520.5 557.9,519.6 560.7,518.6 563.6,517.6 566.4,516.6 569.2,515.4 572.1,514.3 574.9,513.1 577.7,511.8 580.5,510.5 583.4,509.1 586.2,507.7 589.0,506.2 591.9,504.7 594.7,503.2 597.5,501.6 600.4,499.9 603.2,498.2 606.0,496.5 608.9,494.8 611.7,493.0 614.5,491.2 617.4,489.3 620.2,487.5 623.0,485.6 625.8,483.6 628.7,481.7 631.5,479.7 634.3,477.7 637.2,475.7 640.0,473.7" fill="none" stroke="#111" stroke-width="1.8" stroke-dasharray="7 5"/>
  <polyline points="20.0,493.6 22.8,493.3 25.7,492.9 28.5,492.5 31.3,492.2 34.2,491.8 37.0,491.5 39.8,491.1 42.6,490.8 45.5,490.5 48.3,490.1 51.1,489.8 54.0,489.6 56.8,489.3 59.6,489.0 62.5,488.8 65.3,488.6 68.1,488.4 71.0,488.2 73.8,488.0 76.6,487.9 79.5,487.8 82.3,487.7 85.1,487.6 87.9,487.6 90.8,487.6 93.6,487.6 96.4,487.6 99.3,487.7 102.1,487.8 104.9,488.0 107.8,488.1 110.6,488.3 113.4,488.5 116.3,488.7 119.1,489.0 121.9,489.3 124.7,489.6 127.6,489.9 130.4,490.2 133.2,490.6 136.1,491.0 138.9,491.4 141.7,491.8 144.6,492.2 147.4,492.6 150.2,493.0 153.1,493.5 155.9,494.0 158.7,494.4 161.6,494.9 164.4,495.4 167.2,495.9 170.0,496.4 172.9,496.8 175.7,497.3 178.5,497.8 181.4,498.3 184.2,498.9 187.0,499.4 189.9,499.9 192.7,500.4 195.5,500.9 198.4,501.4 201.2,501.9 204.0,502.4 206.8,502.9 209.7,503.4 212.5,503.9 215.3,504.4 218.2,504.9 221.0,505.3 223.8,505.8 226.7,506.3 229.5,506.8 232.3,507.2 235.2,507.7 238.0,508.2 240.8,508.6 243.7,509.1 246.5,509.5 249.3,510.0 252.1,510.4 255.0,510.9 257.8,511.3 260.6,511.7 263.5,512.1 266.3,512.5 269.1,512.9 272.0,513.3 274.8,513.7 277.6,514.1 280.5,514.5 283.3,514.9 286.1,515.2 288.9,515.6 291.8,515.9 294.6,516.2 297.4,516.6 300.3,516.9 303.1,517.2 305.9,517.5 308.8,517.8 311.6,518.1 314.4,518.3 317.3,518.6 320.1,518.8 322.9,519.1 325.8,519.3 328.6,519.5 331.4,519.7 334.2,519.9 337.1,520.0 339.9,520.2 342.7,520.4 345.6,520.5 348.4,520.6 351.2,520.7 354.1,520.8 356.9,520.9 359.7,521.0 362.6,521.1 365.4,521.2 368.2,521.2 371.1,521.3 373.9,521.3 376.7,521.4 379.5,521.4 382.4,521.4 385.2,521.4 388.0,521.4 390.9,521.4 393.7,521.4 396.5,521.4 399.4,521.4 402.2,521.4 405.0,521.4 407.9,521.4 410.7,521.3 413.5,521.3 416.3,521.3 419.2,521.2 422.0,521.2 424.8,521.1 427.7,521.1 430.5,521.0 433.3,521.0 436.2,520.9 439.0,520.9 441.8,520.8 444.7,520.7 447.5,520.7 450.3,520.6 453.2,520.5 456.0,520.4 458.8,520.4 461.6,520.3 464.5,520.2 467.3,520.1 470.1,520.0 473.0,519.9 475.8,519.8 478.6,519.7 481.5,519.6 484.3,519.5 487.1,519.5 490.0,519.4 492.8,519.3 495.6,519.2 498.4,519.1 501.3,519.0 504.1,518.9 506.9,518.8 509.8,518.7 512.6,518.6 515.4,518.5 518.3,518.4 521.1,518.3 523.9,518.2 526.8,518.1 529.6,518.0 532.4,518.0 535.3,517.9 538.1,517.8 540.9,517.7 543.7,517.6 546.6,517.5 549.4,517.4 552.2,517.3 555.1,517.2 557.9,517.1 560.7,517.0 563.6,516.9 566.4,516.8 569.2,516.7 572.1,516.6 574.9,516.6 577.7,516.5 580.5,516.4 583.4,516.3 586.2,516.2 589.0,516.1 591.9,516.0 594.7,515.9 597.5,515.8 600.4,515.7 603.2,515.6 606.0,515.5 608.9,515.4 611.7,515.3 614.5,515.2 617.4,515.1 620.2,515.0 623.0,514.9 625.8,514.8 628.7,514.7 631.5,514.6 634.3,514.5 637.2,514.4 640.0,514.4" fill="none" stroke="#111" stroke-width="2"/>
  <circle cx="94.4" cy="487.6" r="5" fill="#111" stroke="#111" stroke-width="1.2"/>
  <circle cx="565.6" cy="516.9" r="5" fill="#111" stroke="#111" stroke-width="1.2"/>
  <circle cx="444.7" cy="520.7" r="5" fill="#111" stroke="#111" stroke-width="1.2"/>
  <circle cx="334.2" cy="519.9" r="6" fill="#e01b1b" stroke="#111" stroke-width="1.2"/>
  <polygon points="634.0,533.0 646.0,533.0 640.0,543.0" fill="#e01b1b" stroke="#111" stroke-width="0.8"/>
  <text x="106.39999999999999" y="65.61155021927405" font-size="12" fill="#111" text-anchor="start">observation</text>
  <text x="430.6575342465753" y="127.0" font-size="12" fill="#c0392b" text-anchor="end">acquisition max</text>
  <text x="206.0" y="180" font-size="12" fill="#2e7d4f" text-anchor="start">acquisition / Expected Improvement u(&#183;)</text>
  <text x="432.6575342465753" y="296.7373127336697" font-size="12" fill="#c0392b" text-anchor="end">new observation x&#8348;</text>
  <text x="489.61643835616434" y="505.1663400305133" font-size="12" fill="#111" text-anchor="end">posterior mean &#956;(&#183;)</text>
  <text x="240.82191780821915" y="556.9219221018201" font-size="12" fill="#111" text-anchor="middle">posterior uncertainty &#956;(&#183;) &#177; &#963;(&#183;)</text>
  </svg>