<svg width="640" height="262" viewBox="0 0 640 262" xmlns="http://www.w3.org/2000/svg" font-family="Helvetica, Arial, sans-serif">
  <rect width="640" height="262" fill="white"/>
  <text x="110" y="20" font-size="11" fill="#666">5-fold CV on the training set &#8212; V = validation fold, T = training fold</text>
  <text x="30" y="53" font-size="12" fill="#666">Round 1</text>
  <rect x="110" y="32" width="88" height="32" rx="6" fill="#fef9e7" stroke="#b9770e" stroke-width="1.5"/><text x="154" y="53" font-size="14" font-weight="bold" fill="#b9770e" text-anchor="middle">V</text>
  <rect x="206" y="32" width="88" height="32" rx="6" fill="#eaf1fb" stroke="#3b5a86" stroke-width="1.5"/><text x="250" y="53" font-size="14" fill="#3b5a86" text-anchor="middle">T</text>
  <rect x="302" y="32" width="88" height="32" rx="6" fill="#eaf1fb" stroke="#3b5a86" stroke-width="1.5"/><text x="346" y="53" font-size="14" fill="#3b5a86" text-anchor="middle">T</text>
  <rect x="398" y="32" width="88" height="32" rx="6" fill="#eaf1fb" stroke="#3b5a86" stroke-width="1.5"/><text x="442" y="53" font-size="14" fill="#3b5a86" text-anchor="middle">T</text>
  <rect x="494" y="32" width="88" height="32" rx="6" fill="#eaf1fb" stroke="#3b5a86" stroke-width="1.5"/><text x="538" y="53" font-size="14" fill="#3b5a86" text-anchor="middle">T</text>
  <text x="30" y="93" font-size="12" fill="#666">Round 2</text>
  <rect x="110" y="72" width="88" height="32" rx="6" fill="#eaf1fb" stroke="#3b5a86" stroke-width="1.5"/><text x="154" y="93" font-size="14" fill="#3b5a86" text-anchor="middle">T</text>
  <rect x="206" y="72" width="88" height="32" rx="6" fill="#fef9e7" stroke="#b9770e" stroke-width="1.5"/><text x="250" y="93" font-size="14" font-weight="bold" fill="#b9770e" text-anchor="middle">V</text>
  <rect x="302" y="72" width="88" height="32" rx="6" fill="#eaf1fb" stroke="#3b5a86" stroke-width="1.5"/><text x="346" y="93" font-size="14" fill="#3b5a86" text-anchor="middle">T</text>
  <rect x="398" y="72" width="88" height="32" rx="6" fill="#eaf1fb" stroke="#3b5a86" stroke-width="1.5"/><text x="442" y="93" font-size="14" fill="#3b5a86" text-anchor="middle">T</text>
  <rect x="494" y="72" width="88" height="32" rx="6" fill="#eaf1fb" stroke="#3b5a86" stroke-width="1.5"/><text x="538" y="93" font-size="14" fill="#3b5a86" text-anchor="middle">T</text>
  <text x="30" y="133" font-size="12" fill="#666">Round 3</text>
  <rect x="110" y="112" width="88" height="32" rx="6" fill="#eaf1fb" stroke="#3b5a86" stroke-width="1.5"/><text x="154" y="133" font-size="14" fill="#3b5a86" text-anchor="middle">T</text>
  <rect x="206" y="112" width="88" height="32" rx="6" fill="#eaf1fb" stroke="#3b5a86" stroke-width="1.5"/><text x="250" y="133" font-size="14" fill="#3b5a86" text-anchor="middle">T</text>
  <rect x="302" y="112" width="88" height="32" rx="6" fill="#fef9e7" stroke="#b9770e" stroke-width="1.5"/><text x="346" y="133" font-size="14" font-weight="bold" fill="#b9770e" text-anchor="middle">V</text>
  <rect x="398" y="112" width="88" height="32" rx="6" fill="#eaf1fb" stroke="#3b5a86" stroke-width="1.5"/><text x="442" y="133" font-size="14" fill="#3b5a86" text-anchor="middle">T</text>
  <rect x="494" y="112" width="88" height="32" rx="6" fill="#eaf1fb" stroke="#3b5a86" stroke-width="1.5"/><text x="538" y="133" font-size="14" fill="#3b5a86" text-anchor="middle">T</text>
  <text x="30" y="173" font-size="12" fill="#666">Round 4</text>
  <rect x="110" y="152" width="88" height="32" rx="6" fill="#eaf1fb" stroke="#3b5a86" stroke-width="1.5"/><text x="154" y="173" font-size="14" fill="#3b5a86" text-anchor="middle">T</text>
  <rect x="206" y="152" width="88" height="32" rx="6" fill="#eaf1fb" stroke="#3b5a86" stroke-width="1.5"/><text x="250" y="173" font-size="14" fill="#3b5a86" text-anchor="middle">T</text>
  <rect x="302" y="152" width="88" height="32" rx="6" fill="#eaf1fb" stroke="#3b5a86" stroke-width="1.5"/><text x="346" y="173" font-size="14" fill="#3b5a86" text-anchor="middle">T</text>
  <rect x="398" y="152" width="88" height="32" rx="6" fill="#fef9e7" stroke="#b9770e" stroke-width="1.5"/><text x="442" y="173" font-size="14" font-weight="bold" fill="#b9770e" text-anchor="middle">V</text>
  <rect x="494" y="152" width="88" height="32" rx="6" fill="#eaf1fb" stroke="#3b5a86" stroke-width="1.5"/><text x="538" y="173" font-size="14" fill="#3b5a86" text-anchor="middle">T</text>
  <text x="30" y="213" font-size="12" fill="#666">Round 5</text>
  <rect x="110" y="192" width="88" height="32" rx="6" fill="#eaf1fb" stroke="#3b5a86" stroke-width="1.5"/><text x="154" y="213" font-size="14" fill="#3b5a86" text-anchor="middle">T</text>
  <rect x="206" y="192" width="88" height="32" rx="6" fill="#eaf1fb" stroke="#3b5a86" stroke-width="1.5"/><text x="250" y="213" font-size="14" fill="#3b5a86" text-anchor="middle">T</text>
  <rect x="302" y="192" width="88" height="32" rx="6" fill="#eaf1fb" stroke="#3b5a86" stroke-width="1.5"/><text x="346" y="213" font-size="14" fill="#3b5a86" text-anchor="middle">T</text>
  <rect x="398" y="192" width="88" height="32" rx="6" fill="#eaf1fb" stroke="#3b5a86" stroke-width="1.5"/><text x="442" y="213" font-size="14" fill="#3b5a86" text-anchor="middle">T</text>
  <rect x="494" y="192" width="88" height="32" rx="6" fill="#fef9e7" stroke="#b9770e" stroke-width="1.5"/><text x="538" y="213" font-size="14" font-weight="bold" fill="#b9770e" text-anchor="middle">V</text>
  <text x="346" y="248" font-size="12" fill="#888" text-anchor="middle" font-style="italic">train on the T folds, score on the V fold &#8212; then average the 5 validation scores</text>
</svg>