<svg width="640" height="300" viewBox="0 0 640 300" xmlns="http://www.w3.org/2000/svg" font-family="Helvetica, Arial, sans-serif">
  <rect width="640" height="300" fill="white"/>
  <line x1="60" y1="260" x2="600" y2="260" stroke="#999" stroke-width="1.3"/>
  <polygon points="606,260 597,256 597,264" fill="#999"/>
  <line x1="60" y1="260" x2="60" y2="40" stroke="#999" stroke-width="1.3"/>
  <polygon points="60,34 56,43 64,43" fill="#999"/>
  <text x="610" y="276" font-size="13" fill="#666">x</text>
  <text x="44" y="44" font-size="13" fill="#666">y</text>
  <line x1="80" y1="220" x2="560" y2="80" stroke="#2e7d4f" stroke-width="2"/>
  <text x="472" y="66" font-size="12" fill="#2e7d4f">mean:  y = x&#183;b</text>
  <polyline points="180.8,132.8 181.4,136.8 182.3,140.8 183.7,144.8 185.7,148.8 188.6,152.8 192.3,156.8 196.9,160.8 202.3,164.8 208.4,168.8 214.7,172.8 220.7,176.8 225.9,180.8 229.7,184.8 231.7,188.8 231.7,192.8 229.7,196.8 225.9,200.8 220.7,204.8 214.7,208.8 208.4,212.8 202.3,216.8 196.9,220.8 192.3,224.8 188.6,228.8 185.7,232.8 183.7,236.8 182.3,240.8 181.4,244.8 180.8,248.8" fill="none" stroke="#b9770e" stroke-width="1.6"/><line x1="180" y1="132.8" x2="180" y2="248.8" stroke="#b9770e" stroke-width="0.8" stroke-dasharray="3 3"/>
  <polyline points="320.8,92.0 321.4,96.0 322.3,100.0 323.7,104.0 325.7,108.0 328.6,112.0 332.3,116.0 336.9,120.0 342.3,124.0 348.4,128.0 354.7,132.0 360.7,136.0 365.9,140.0 369.7,144.0 371.7,148.0 371.7,152.0 369.7,156.0 365.9,160.0 360.7,164.0 354.7,168.0 348.4,172.0 342.3,176.0 336.9,180.0 332.3,184.0 328.6,188.0 325.7,192.0 323.7,196.0 322.3,200.0 321.4,204.0 320.8,208.0" fill="none" stroke="#b9770e" stroke-width="1.6"/><line x1="320" y1="92.0" x2="320" y2="208.0" stroke="#b9770e" stroke-width="0.8" stroke-dasharray="3 3"/>
  <polyline points="460.8,51.2 461.4,55.2 462.3,59.2 463.7,63.2 465.7,67.2 468.6,71.2 472.3,75.2 476.9,79.2 482.3,83.2 488.4,87.2 494.7,91.2 500.7,95.2 505.9,99.2 509.7,103.2 511.7,107.2 511.7,111.2 509.7,115.2 505.9,119.2 500.7,123.2 494.7,127.2 488.4,131.2 482.3,135.2 476.9,139.2 472.3,143.2 468.6,147.2 465.7,151.2 463.7,155.2 462.3,159.2 461.4,163.2 460.8,167.2" fill="none" stroke="#b9770e" stroke-width="1.6"/><line x1="460" y1="51.2" x2="460" y2="167.2" stroke="#b9770e" stroke-width="0.8" stroke-dasharray="3 3"/>
  <text x="172" y="128" font-size="12" fill="#b9770e" text-anchor="end">&#949; ~ N(0, &#963;&#178;)</text>
  <circle cx="120" cy="207" r="3.2" fill="#333"/>
  <circle cx="152" cy="214" r="3.2" fill="#333"/>
  <circle cx="205" cy="178" r="3.2" fill="#333"/>
  <circle cx="238" cy="188" r="3.2" fill="#333"/>
  <circle cx="268" cy="148" r="3.2" fill="#333"/>
  <circle cx="300" cy="163" r="3.2" fill="#333"/>
  <circle cx="352" cy="128" r="3.2" fill="#333"/>
  <circle cx="382" cy="146" r="3.2" fill="#333"/>
  <circle cx="422" cy="103" r="3.2" fill="#333"/>
  <circle cx="482" cy="112" r="3.2" fill="#333"/>
  <circle cx="520" cy="84" r="3.2" fill="#333"/>
  <circle cx="543" cy="101" r="3.2" fill="#333"/>
  <circle cx="320" cy="126" r="4.2" fill="#c0392b"/>
  <line x1="320" y1="126" x2="320" y2="150" stroke="#c0392b" stroke-width="1.4"/>
  <text x="312" y="142" font-size="11" fill="#c0392b" text-anchor="end">&#949;&#7522;</text>
  <text x="320" y="292" font-size="12" fill="#888" text-anchor="middle" font-style="italic">each observed y&#7522; is one draw from its Gaussian &#8212; MLE picks the b (and &#963;) that make all the draws most probable</text>
</svg>