<svg width="470" height="220" viewBox="0 0 470 220" xmlns="http://www.w3.org/2000/svg" font-family="Helvetica, Arial, sans-serif">
  <rect width="470" height="220" fill="white"/>
  <defs>
    <marker id="ah" markerWidth="9" markerHeight="9" refX="7" refY="3" orient="auto">
      <path d="M0,0 L7,3 L0,6 Z" fill="#555"/>
    </marker>
    <marker id="ahr" markerWidth="9" markerHeight="9" refX="7" refY="3" orient="auto-start-reverse">
      <path d="M0,0 L7,3 L0,6 Z" fill="#c0392b"/>
    </marker>
    <marker id="ahg" markerWidth="9" markerHeight="9" refX="7" refY="3" orient="auto">
      <path d="M0,0 L7,3 L0,6 Z" fill="#aaa"/>
    </marker>
  </defs>

  <rect x="20" y="24" width="164" height="48" rx="8" fill="#eaf1fb" stroke="#3b5a86" stroke-width="1.5"/>
  <rect x="20" y="148" width="164" height="48" rx="8" fill="#f5f5f5" stroke="#999" stroke-width="1.5" stroke-dasharray="5 3"/>
  <rect x="292" y="86" width="158" height="48" rx="8" fill="#e9f7ef" stroke="#2e7d4f" stroke-width="1.5"/>

  <g font-size="15" fill="#111" text-anchor="middle">
    <text x="102" y="53">People in park</text>
    <text x="102" y="177" fill="#666">Tickets sold</text>
    <text x="371" y="115">Ice cream sales</text>
  </g>

  <path d="M184,48 C240,60 250,86 290,98" fill="none" stroke="#555" stroke-width="1.6" marker-end="url(#ah)"/>
  <path d="M184,172 C240,160 250,134 290,122" fill="none" stroke="#aaa" stroke-width="1.6" stroke-dasharray="5 3" marker-end="url(#ahg)"/>

  <line x1="102" y1="72" x2="102" y2="148" stroke="#c0392b" stroke-width="1.6" marker-start="url(#ahr)" marker-end="url(#ahr)"/>
  <g font-size="12" fill="#c0392b" text-anchor="start">
    <text x="116" y="106">100%</text>
    <text x="116" y="122">correlated</text>
  </g>
  <text x="235" y="213" font-size="12" fill="#888" text-anchor="middle" font-style="italic">tickets ≡ people  →  adds no new information (redundant)</text>
</svg>