<svg width="560" height="350" viewBox="0 0 560 350" xmlns="http://www.w3.org/2000/svg" font-family="Helvetica,Arial,sans-serif">
  <rect width="560" height="350" fill="white"/>
  <line x1="55" y1="170.0" x2="540" y2="170.0" stroke="gray" stroke-dasharray="3 3"/>
  <line x1="297.5" y1="25" x2="297.5" y2="315" stroke="darkred" stroke-dasharray="3 3"/>
  <line x1="55" y1="315" x2="540" y2="315" stroke="black"/>
  <line x1="55" y1="25" x2="55" y2="315" stroke="black"/>
  <text x="55.0" y="331" font-size="10" text-anchor="middle">-10</text><text x="176.2" y="331" font-size="10" text-anchor="middle">-5</text><text x="297.5" y="331" font-size="10" text-anchor="middle">0</text><text x="418.8" y="331" font-size="10" text-anchor="middle">5</text><text x="540.0" y="331" font-size="10" text-anchor="middle">10</text><text x="47" y="318.0" font-size="10" text-anchor="end">0</text><text x="47" y="173.0" font-size="10" text-anchor="end">0.5</text><text x="47" y="28.0" font-size="10" text-anchor="end">1</text>
  <path d="M 55.0,315.0 L 63.2,315.0 L 71.4,315.0 L 79.7,315.0 L 87.9,314.9 L 96.1,314.9 L 104.3,314.9 L 112.5,314.9 L 120.8,314.8 L 129.0,314.7 L 137.2,314.6 L 145.4,314.5 L 153.6,314.2 L 161.9,313.9 L 170.1,313.5 L 178.3,312.9 L 186.5,312.0 L 194.7,310.9 L 203.0,309.2 L 211.2,307.0 L 219.4,303.9 L 227.6,299.6 L 235.8,293.8 L 244.1,286.2 L 252.3,276.1 L 260.5,263.2 L 268.7,247.2 L 276.9,228.0 L 285.2,206.1 L 293.4,182.3 L 301.6,157.7 L 309.8,133.9 L 318.1,112.0 L 326.3,92.8 L 334.5,76.8 L 342.7,63.9 L 350.9,53.8 L 359.2,46.2 L 367.4,40.4 L 375.6,36.1 L 383.8,33.0 L 392.0,30.8 L 400.3,29.1 L 408.5,28.0 L 416.7,27.1 L 424.9,26.5 L 433.1,26.1 L 441.4,25.8 L 449.6,25.5 L 457.8,25.4 L 466.0,25.3 L 474.2,25.2 L 482.5,25.1 L 490.7,25.1 L 498.9,25.1 L 507.1,25.1 L 515.3,25.0 L 523.6,25.0 L 531.8,25.0 L 540.0,25.0" fill="none" stroke="black" stroke-width="2"/>
  <circle cx="350.6" cy="25.0" r="4" fill="crimson" fill-opacity="0.7" stroke="black" stroke-width="0.4"/>
  <circle cx="208.2" cy="315.0" r="4" fill="royalblue" fill-opacity="0.7" stroke="black" stroke-width="0.4"/>
  <circle cx="119.4" cy="315.0" r="4" fill="royalblue" fill-opacity="0.7" stroke="black" stroke-width="0.4"/>
  <circle cx="109.9" cy="315.0" r="4" fill="royalblue" fill-opacity="0.7" stroke="black" stroke-width="0.4"/>
  <circle cx="419.0" cy="25.0" r="4" fill="crimson" fill-opacity="0.7" stroke="black" stroke-width="0.4"/>
  <circle cx="457.6" cy="25.0" r="4" fill="crimson" fill-opacity="0.7" stroke="black" stroke-width="0.4"/>
  <circle cx="338.9" cy="25.0" r="4" fill="crimson" fill-opacity="0.7" stroke="black" stroke-width="0.4"/>
  <circle cx="386.5" cy="25.0" r="4" fill="crimson" fill-opacity="0.7" stroke="black" stroke-width="0.4"/>
  <circle cx="314.4" cy="25.0" r="4" fill="crimson" fill-opacity="0.7" stroke="black" stroke-width="0.4"/>
  <circle cx="466.3" cy="25.0" r="4" fill="crimson" fill-opacity="0.7" stroke="black" stroke-width="0.4"/>
  <circle cx="420.1" cy="25.0" r="4" fill="crimson" fill-opacity="0.7" stroke="black" stroke-width="0.4"/>
  <circle cx="104.6" cy="315.0" r="4" fill="royalblue" fill-opacity="0.7" stroke="black" stroke-width="0.4"/>
  <circle cx="436.2" cy="25.0" r="4" fill="crimson" fill-opacity="0.7" stroke="black" stroke-width="0.4"/>
  <circle cx="116.5" cy="315.0" r="4" fill="royalblue" fill-opacity="0.7" stroke="black" stroke-width="0.4"/>
  <circle cx="386.6" cy="25.0" r="4" fill="crimson" fill-opacity="0.7" stroke="black" stroke-width="0.4"/>
  <circle cx="171.7" cy="315.0" r="4" fill="royalblue" fill-opacity="0.7" stroke="black" stroke-width="0.4"/>
  <circle cx="438.4" cy="25.0" r="4" fill="crimson" fill-opacity="0.7" stroke="black" stroke-width="0.4"/>
  <circle cx="313.6" cy="315.0" r="4" fill="royalblue" fill-opacity="0.7" stroke="black" stroke-width="0.4"/>
  <circle cx="219.8" cy="315.0" r="4" fill="royalblue" fill-opacity="0.7" stroke="black" stroke-width="0.4"/>
  <circle cx="267.5" cy="25.0" r="4" fill="crimson" fill-opacity="0.7" stroke="black" stroke-width="0.4"/>
  <circle cx="114.5" cy="315.0" r="4" fill="royalblue" fill-opacity="0.7" stroke="black" stroke-width="0.4"/>
  <circle cx="151.7" cy="315.0" r="4" fill="royalblue" fill-opacity="0.7" stroke="black" stroke-width="0.4"/>
  <circle cx="363.7" cy="25.0" r="4" fill="crimson" fill-opacity="0.7" stroke="black" stroke-width="0.4"/>
  <circle cx="354.6" cy="25.0" r="4" fill="crimson" fill-opacity="0.7" stroke="black" stroke-width="0.4"/>
  <circle cx="342.3" cy="25.0" r="4" fill="crimson" fill-opacity="0.7" stroke="black" stroke-width="0.4"/>
  <circle cx="252.4" cy="315.0" r="4" fill="royalblue" fill-opacity="0.7" stroke="black" stroke-width="0.4"/>
  <circle cx="490.4" cy="25.0" r="4" fill="crimson" fill-opacity="0.7" stroke="black" stroke-width="0.4"/>
  <circle cx="484.1" cy="25.0" r="4" fill="crimson" fill-opacity="0.7" stroke="black" stroke-width="0.4"/>
  <circle cx="369.5" cy="25.0" r="4" fill="crimson" fill-opacity="0.7" stroke="black" stroke-width="0.4"/>
  <circle cx="355.9" cy="25.0" r="4" fill="crimson" fill-opacity="0.7" stroke="black" stroke-width="0.4"/>
  <circle cx="370.6" cy="25.0" r="4" fill="crimson" fill-opacity="0.7" stroke="black" stroke-width="0.4"/>
  <circle cx="254.4" cy="315.0" r="4" fill="royalblue" fill-opacity="0.7" stroke="black" stroke-width="0.4"/>
  <circle cx="155.9" cy="315.0" r="4" fill="royalblue" fill-opacity="0.7" stroke="black" stroke-width="0.4"/>
  <circle cx="383.4" cy="25.0" r="4" fill="crimson" fill-opacity="0.7" stroke="black" stroke-width="0.4"/>
  <circle cx="307.3" cy="25.0" r="4" fill="crimson" fill-opacity="0.7" stroke="black" stroke-width="0.4"/>
  <circle cx="223.9" cy="315.0" r="4" fill="royalblue" fill-opacity="0.7" stroke="black" stroke-width="0.4"/>
  <circle cx="292.0" cy="315.0" r="4" fill="royalblue" fill-opacity="0.7" stroke="black" stroke-width="0.4"/>
  <circle cx="448.6" cy="25.0" r="4" fill="crimson" fill-opacity="0.7" stroke="black" stroke-width="0.4"/>
  <circle cx="465.9" cy="25.0" r="4" fill="crimson" fill-opacity="0.7" stroke="black" stroke-width="0.4"/>
  <circle cx="242.3" cy="315.0" r="4" fill="royalblue" fill-opacity="0.7" stroke="black" stroke-width="0.4"/>
  <g font-size="10">
    <line x1="66" y1="45" x2="90" y2="45" stroke="black" stroke-width="2"/><text x="95" y="48">&#963;(x) = P(y=1|x)</text>
    <circle cx="78" cy="61" r="4" fill="royalblue" fill-opacity="0.7" stroke="black" stroke-width="0.4"/><text x="95" y="64">y = 0</text>
    <circle cx="78" cy="77" r="4" fill="crimson" fill-opacity="0.7" stroke="black" stroke-width="0.4"/><text x="95" y="80">y = 1</text>
  </g>
  <text x="297.5" y="346" font-size="11" text-anchor="middle">x</text>
  <text x="14" y="170.0" font-size="11" text-anchor="middle" transform="rotate(-90 14 170.0)">y  /  P(y=1)</text>
</svg>