<svg width="760" height="320" viewBox="0 0 760 320" xmlns="http://www.w3.org/2000/svg" font-family="Helvetica, Arial, sans-serif">
  <rect width="760" height="320" fill="white"/>
  <text x="32" y="54" font-size="14" fill="#555">minimize:</text>
  <rect x="112" y="26" width="84" height="44" rx="8" fill="#f5f5f5" stroke="#999" stroke-width="1.5"/>
  <text x="154" y="54" font-size="15" fill="#111" text-anchor="middle">Loss</text>
  <text x="216" y="54" font-size="16" fill="#333" text-anchor="middle">=</text>
  <rect x="236" y="26" width="120" height="44" rx="8" fill="#eaf1fb" stroke="#3b5a86" stroke-width="1.5"/>
  <text x="296" y="54" font-size="15" fill="#111" text-anchor="middle">fit error</text>
  <text x="376" y="54" font-size="16" fill="#333" text-anchor="middle">+</text>
  <text x="406" y="54" font-size="16" font-weight="bold" fill="#c0392b" text-anchor="middle">&#945; &#215;</text>
  <rect x="432" y="26" width="214" height="44" rx="8" fill="#fdecea" stroke="#c0392b" stroke-width="1.5"/>
  <text x="539" y="54" font-size="14" fill="#111" text-anchor="middle">penalty(coefficients)</text>
  <text x="296" y="88" font-size="11" fill="#666" text-anchor="middle">match the training data</text>
  <text x="539" y="88" font-size="11" fill="#666" text-anchor="middle">stay simple: keep the coefficients small</text>
  <line x1="66" y1="132" x2="694" y2="132" stroke="#555" stroke-width="1.6"/>
  <polygon points="60,132 70,128 70,136" fill="#555"/>
  <polygon points="700,132 690,128 690,136" fill="#555"/>
  <text x="380" y="124" font-size="13" fill="#333" text-anchor="middle">&#945; (penalty strength)</text>
  <text x="60" y="152" font-size="11" fill="#666">weak penalty</text>
  <text x="700" y="152" font-size="11" fill="#666" text-anchor="end">strong penalty</text>
  <rect x="40" y="160" width="200" height="100" rx="8" fill="white" stroke="#c0392b" stroke-width="1.5"/>
  <rect x="280" y="160" width="200" height="100" rx="8" fill="white" stroke="#2e7d4f" stroke-width="1.5"/>
  <rect x="520" y="160" width="200" height="100" rx="8" fill="white" stroke="#999" stroke-width="1.5"/>
  <text x="50" y="175" font-size="11" fill="#666">&#945; = 0</text>
  <text x="290" y="175" font-size="11" fill="#666">&#945; just right</text>
  <text x="530" y="175" font-size="11" fill="#666">&#945; huge</text>
  <circle cx="60" cy="190" r="3" fill="#333"/>
  <circle cx="90" cy="220" r="3" fill="#333"/>
  <circle cx="120" cy="236" r="3" fill="#333"/>
  <circle cx="150" cy="228" r="3" fill="#333"/>
  <circle cx="180" cy="208" r="3" fill="#333"/>
  <circle cx="210" cy="188" r="3" fill="#333"/>
  <circle cx="300" cy="190" r="3" fill="#333"/>
  <circle cx="330" cy="220" r="3" fill="#333"/>
  <circle cx="360" cy="236" r="3" fill="#333"/>
  <circle cx="390" cy="228" r="3" fill="#333"/>
  <circle cx="420" cy="208" r="3" fill="#333"/>
  <circle cx="450" cy="188" r="3" fill="#333"/>
  <circle cx="540" cy="190" r="3" fill="#333"/>
  <circle cx="570" cy="220" r="3" fill="#333"/>
  <circle cx="600" cy="236" r="3" fill="#333"/>
  <circle cx="630" cy="228" r="3" fill="#333"/>
  <circle cx="660" cy="208" r="3" fill="#333"/>
  <circle cx="690" cy="188" r="3" fill="#333"/>
  <path d="M60,190 C70,166 80,248 90,220 C100,186 110,254 120,236 C130,200 140,252 150,228 C160,192 170,242 180,208 C190,176 200,218 210,188" fill="none" stroke="#c0392b" stroke-width="2"/>
  <path d="M300,194 Q375,276 450,190" fill="none" stroke="#2e7d4f" stroke-width="2"/>
  <line x1="540" y1="212" x2="690" y2="212" stroke="#999" stroke-width="2"/>
  <text x="140" y="282" font-size="12" fill="#c0392b" text-anchor="middle">OVERFITS &#8212; memorizes noise</text>
  <text x="380" y="282" font-size="12" fill="#2e7d4f" text-anchor="middle">generalizes well</text>
  <text x="620" y="282" font-size="12" fill="#888" text-anchor="middle">UNDERFITS &#8212; misses the pattern</text>
  <text x="140" y="298" font-size="11" fill="#888" text-anchor="middle" font-style="italic">coefficients: huge</text>
  <text x="380" y="298" font-size="11" fill="#888" text-anchor="middle" font-style="italic">coefficients: small</text>
  <text x="620" y="298" font-size="11" fill="#888" text-anchor="middle" font-style="italic">coefficients: ~zero</text>
</svg>